<svg width="20" height="20" viewBox="0 0 20 20" fill="none" xmlns="http://www.w3.org/2000/svg">
<path d="M1.85 4.03747V4.03767L1.85 14.9623L1.85 14.9625C1.85108 15.8153 2.24429 16.6276 2.93409 17.2229C3.62319 17.8176 4.55337 18.1491 5.51978 18.15H5.51992H9.81157C10.0323 18.15 10.2476 18.0745 10.4094 17.9349C10.5719 17.7946 10.6684 17.5993 10.6684 17.39C10.6684 17.1807 10.5719 16.9853 10.4094 16.845C10.2476 16.7054 10.0323 16.6299 9.81157 16.6299H5.52007C4.99486 16.6294 4.49499 16.4489 4.12936 16.1334C3.76444 15.8185 3.56437 15.3966 3.56375 14.9622C3.56375 14.9622 3.56375 14.9622 3.56375 14.9621V4.03785C3.56375 4.03782 3.56375 4.03779 3.56375 4.03776C3.56432 3.60333 3.76436 3.18148 4.12929 2.86655C4.49493 2.55101 4.99483 2.37055 5.52005 2.37007H14.48C15.0052 2.37055 15.5051 2.55101 15.8707 2.86656C16.2357 3.18151 16.4357 3.6034 16.4362 4.03785V8.79554C16.4362 9.00484 16.5328 9.20021 16.6953 9.34046C16.8571 9.48011 17.0724 9.55558 17.2931 9.55558C17.5138 9.55558 17.7291 9.48011 17.891 9.34046C18.0535 9.20021 18.15 9.00484 18.15 8.79554L18.15 4.03767L18.15 4.03747C18.1489 3.18468 17.7556 2.37246 17.0659 1.77718C16.3768 1.1825 15.4466 0.850965 14.4803 0.85H14.4801L5.51992 0.85L5.51977 0.85C4.55338 0.850958 3.62324 1.18249 2.93415 1.77717C2.24437 2.37245 1.85114 3.18468 1.85 4.03747Z" fill="black" stroke="black" stroke-width="0.3"/>
<path d="M5.85815 6.02656H12.4567C12.6357 6.02656 12.8074 5.95545 12.934 5.82886C13.0606 5.70227 13.1317 5.53058 13.1317 5.35156C13.1317 5.17254 13.0606 5.00085 12.934 4.87427C12.8074 4.74768 12.6357 4.67656 12.4567 4.67656H5.85815C5.67913 4.67656 5.50744 4.74768 5.38086 4.87427C5.25427 5.00085 5.18315 5.17254 5.18315 5.35156C5.18315 5.53058 5.25427 5.70227 5.38086 5.82886C5.50744 5.95545 5.67913 6.02656 5.85815 6.02656Z" fill="black" stroke="black" stroke-width="0.1"/>
<path d="M13.1317 8.67285C13.1317 8.49383 13.0606 8.32214 12.934 8.19555C12.8074 8.06897 12.6357 7.99785 12.4567 7.99785H5.85815C5.67913 7.99785 5.50744 8.06897 5.38086 8.19555C5.25427 8.32214 5.18315 8.49383 5.18315 8.67285C5.18315 8.85187 5.25427 9.02356 5.38086 9.15015C5.50744 9.27674 5.67913 9.34785 5.85815 9.34785H12.4567C12.6357 9.34784 12.8074 9.27672 12.934 9.15014C13.0606 9.02355 13.1317 8.85187 13.1317 8.67285Z" fill="black" stroke="black" stroke-width="0.1"/>
<path d="M5.85815 11.3191C5.67913 11.3191 5.50744 11.3903 5.38086 11.5168C5.25427 11.6434 5.18315 11.8151 5.18315 11.9941C5.18315 12.1732 5.25427 12.3449 5.38086 12.4714C5.50744 12.598 5.67913 12.6691 5.85815 12.6691H8.85772C9.03674 12.6691 9.20843 12.598 9.33502 12.4714C9.46161 12.3449 9.53272 12.1732 9.53272 11.9941C9.53272 11.8151 9.46161 11.6434 9.33502 11.5168C9.20843 11.3903 9.03674 11.3191 8.85772 11.3191H5.85815Z" fill="black" stroke="black" stroke-width="0.1"/>
<path d="M16.1565 10.9L16.1564 10.9C15.7101 10.9 15.2738 11.0324 14.9028 11.2804C14.5317 11.5283 14.2425 11.8807 14.0717 12.2931C13.901 12.7054 13.8563 13.1591 13.9434 13.5968C14.0304 14.0345 14.2454 14.4366 14.5609 14.7521C14.8765 15.0677 15.2786 15.2826 15.7163 15.3697C16.154 15.4568 16.6077 15.4121 17.02 15.2413C17.4323 15.0705 17.7847 14.7813 18.0327 14.4103C18.2807 14.0392 18.413 13.603 18.4131 13.1567V13.1566C18.4123 12.5583 18.1744 11.9847 17.7513 11.5617C17.3283 11.1387 16.7547 10.9007 16.1565 10.9ZM16.1564 13.963C15.9969 13.963 15.8411 13.9157 15.7085 13.827C15.5759 13.7384 15.4726 13.6124 15.4116 13.4651C15.3506 13.3177 15.3347 13.1556 15.3658 12.9992C15.397 12.8428 15.4738 12.6991 15.5866 12.5864C15.6994 12.4736 15.843 12.3969 15.9995 12.3658C16.1559 12.3347 16.318 12.3507 16.4653 12.4117C16.6127 12.4728 16.7386 12.5761 16.8272 12.7087C16.9157 12.8413 16.963 12.9971 16.9631 13.1566C16.9628 13.3704 16.8777 13.5754 16.7264 13.7266C16.5752 13.8778 16.3701 13.9629 16.1563 13.963L16.1564 14.063L16.1564 13.963Z" fill="black" stroke="black" stroke-width="0.2"/>
<path d="M19 19V18.3333C19 17.9797 18.842 17.6406 18.5607 17.3905C18.2794 17.1405 17.8978 17 17.5 17H14.5C14.1022 17 13.7206 17.1405 13.4393 17.3905C13.158 17.6406 13 17.9797 13 18.3333V19" stroke="black" stroke-width="1.8" stroke-linecap="round" stroke-linejoin="round"/>
</svg>
