<svg width="20" height="20" viewBox="0 0 20 20" fill="none" xmlns="http://www.w3.org/2000/svg">
<path d="M2.08398 3.73718V14.9298C2.08489 15.7549 2.41307 16.546 2.99653 17.1295C3.57998 17.7129 4.37106 18.0411 5.19619 18.042H8.99075C9.15651 18.042 9.31548 17.9761 9.43269 17.8589C9.5499 17.7417 9.61575 17.5828 9.61575 17.417C9.61575 17.2512 9.5499 17.0923 9.43269 16.9751C9.31548 16.8578 9.15651 16.792 8.99075 16.792H5.19619C4.70248 16.7914 4.22916 16.595 3.88005 16.2459C3.53095 15.8968 3.33456 15.4235 3.33398 14.9298V3.73718C3.33451 3.24346 3.53087 2.7701 3.87999 2.42099C4.22911 2.07187 4.70247 1.87552 5.19619 1.875H13.1185C13.6123 1.87552 14.0856 2.07188 14.4347 2.421C14.7838 2.77011 14.9802 3.24346 14.9807 3.73718V8.61176C14.9807 8.77752 15.0466 8.93649 15.1638 9.0537C15.281 9.17091 15.44 9.23676 15.6057 9.23676C15.7715 9.23676 15.9304 9.17091 16.0477 9.0537C16.1649 8.93649 16.2307 8.77752 16.2307 8.61176V3.73718C16.2298 2.91207 15.9016 2.12103 15.3181 1.53759C14.7347 0.95415 13.9436 0.625954 13.1185 0.625H5.19619C4.37108 0.625948 3.58003 0.954141 2.99658 1.53758C2.41314 2.12102 2.08494 2.91207 2.08398 3.73718Z" fill="black"/>
<path d="M5.85815 4.97656H12.4567C12.6225 4.97656 12.7814 4.91071 12.8986 4.7935C13.0158 4.67629 13.0817 4.51732 13.0817 4.35156C13.0817 4.1858 13.0158 4.02683 12.8986 3.90962C12.7814 3.79241 12.6225 3.72656 12.4567 3.72656H5.85815C5.69239 3.72656 5.53342 3.79241 5.41621 3.90962C5.299 4.02683 5.23315 4.1858 5.23315 4.35156C5.23315 4.51732 5.299 4.67629 5.41621 4.7935C5.53342 4.91071 5.69239 4.97656 5.85815 4.97656Z" fill="black"/>
<path d="M13.0817 7.67285C13.0817 7.50709 13.0158 7.34812 12.8986 7.23091C12.7814 7.1137 12.6225 7.04785 12.4567 7.04785H5.85815C5.69239 7.04785 5.53342 7.1137 5.41621 7.23091C5.299 7.34812 5.23315 7.50709 5.23315 7.67285C5.23315 7.83861 5.299 7.99758 5.41621 8.11479C5.53342 8.232 5.69239 8.29785 5.85815 8.29785H12.4567C12.6224 8.29784 12.7814 8.23199 12.8986 8.11478C13.0158 7.99758 13.0817 7.83861 13.0817 7.67285Z" fill="black"/>
<path d="M5.85815 10.3691C5.69239 10.3691 5.53342 10.435 5.41621 10.5522C5.299 10.6694 5.23315 10.8284 5.23315 10.9941C5.23315 11.1599 5.299 11.3189 5.41621 11.4361C5.53342 11.5533 5.69239 11.6191 5.85815 11.6191H8.85772C9.02348 11.6191 9.18245 11.5533 9.29966 11.4361C9.41687 11.3189 9.48272 11.1599 9.48272 10.9941C9.48272 10.8284 9.41687 10.6694 9.29966 10.5522C9.18245 10.435 9.02348 10.3691 8.85772 10.3691H5.85815Z" fill="black"/>
<path d="M14.1009 9.66406C13.6744 9.66409 13.2575 9.79059 12.9029 10.0276C12.5483 10.2645 12.2719 10.6013 12.1087 10.9954C11.9455 11.3894 11.9028 11.823 11.986 12.2413C12.0692 12.6597 12.2746 13.0439 12.5762 13.3455C12.8778 13.6471 13.262 13.8525 13.6804 13.9357C14.0987 14.0189 14.5323 13.9762 14.9263 13.813C15.3203 13.6498 15.6572 13.3734 15.8941 13.0188C16.1311 12.6642 16.2576 12.2473 16.2576 11.8207C16.257 11.249 16.0295 10.7008 15.6252 10.2965C15.2209 9.89217 14.6727 9.66473 14.1009 9.66406ZM14.1009 12.7271C13.9217 12.7271 13.7465 12.6738 13.5975 12.5742C13.4485 12.4746 13.3323 12.333 13.2638 12.1674C13.1952 12.0018 13.1773 11.8195 13.2123 11.6437C13.2473 11.4679 13.3337 11.3065 13.4605 11.1797C13.5872 11.053 13.7487 10.9667 13.9245 10.9318C14.1004 10.8968 14.2826 10.9148 14.4482 10.9834C14.6138 11.052 14.7553 11.1682 14.8549 11.3172C14.9545 11.4663 15.0076 11.6415 15.0076 11.8207C15.0073 12.0611 14.9117 12.2915 14.7417 12.4614C14.5717 12.6313 14.3413 12.7269 14.1009 12.7271Z" fill="black"/>
<path d="M10.9111 19.3749C10.9932 19.3749 11.0745 19.3588 11.1503 19.3274C11.2262 19.296 11.2951 19.2499 11.3531 19.1919C11.4112 19.1339 11.4572 19.0649 11.4886 18.9891C11.52 18.9133 11.5362 18.832 11.5361 18.7499C11.5361 18.0697 11.8064 17.4173 12.2874 16.9363C12.7684 16.4553 13.4207 16.1851 14.101 16.1851C14.7812 16.1851 15.4336 16.4553 15.9146 16.9363C16.3956 17.4173 16.6658 18.0697 16.6658 18.7499C16.6658 18.9157 16.7317 19.0746 16.8489 19.1919C16.9661 19.3091 17.1251 19.3749 17.2908 19.3749C17.4566 19.3749 17.6156 19.3091 17.7328 19.1919C17.85 19.0746 17.9158 18.9157 17.9158 18.7499C17.9158 17.7381 17.5139 16.7678 16.7985 16.0524C16.0831 15.337 15.1127 14.9351 14.101 14.9351C13.0892 14.9351 12.1189 15.337 11.4035 16.0524C10.6881 16.7678 10.2861 17.7381 10.2861 18.7499C10.2861 18.832 10.3023 18.9133 10.3337 18.9891C10.3651 19.0649 10.4111 19.1339 10.4691 19.1919C10.5272 19.2499 10.5961 19.296 10.6719 19.3274C10.7478 19.3588 10.8291 19.3749 10.9111 19.3749Z" fill="black"/>
</svg>
