<svg width="20" height="20" viewBox="0 0 20 20" fill="none" xmlns="http://www.w3.org/2000/svg">
<g clip-path="url(#clip0_54_142)">
<path d="M14.4999 16.8126H13.3749V15.5376H14.4999C15.0624 15.5376 15.5624 15.1751 15.7249 14.6251L18.5749 5.11262C18.6749 4.78762 18.6374 4.43762 18.4749 4.12512C18.3124 3.81262 18.0374 3.60012 17.6999 3.51262L9.8624 1.36262C9.2124 1.17512 8.5249 1.53762 8.3124 2.18762L7.6124 4.28762L6.3999 3.88762L7.0999 1.78762C7.5249 0.487618 8.8874 -0.224882 10.1999 0.137618L18.0374 2.31262C18.6999 2.50012 19.2499 2.93762 19.5874 3.53762C19.9249 4.13762 19.9999 4.83762 19.7999 5.50012L16.9499 15.0001C16.6249 16.0876 15.6499 16.8126 14.5124 16.8126H14.4999Z" fill="black"/>
<path d="M11.4625 20H2.55C1.15 20 0 18.8625 0 17.45V5.9875C0 4.5875 1.1375 3.4375 2.55 3.4375H11.4625C12.8625 3.4375 14.0125 4.575 14.0125 5.9875V17.45C14.0125 18.85 12.875 20 11.4625 20ZM2.55 4.7125C1.85 4.7125 1.275 5.2875 1.275 5.9875V17.45C1.275 18.15 1.85 18.725 2.55 18.725H11.4625C12.1625 18.725 12.7375 18.15 12.7375 17.45V5.9875C12.7375 5.2875 12.1625 4.7125 11.4625 4.7125H2.55Z" fill="black"/>
</g>
<defs>
<clipPath id="clip0_54_142">
<rect width="20" height="20" fill="white"/>
</clipPath>
</defs>
</svg>
