<svg width="20" height="20" viewBox="0 0 20 20" fill="none" xmlns="http://www.w3.org/2000/svg">
<path fill-rule="evenodd" clip-rule="evenodd" d="M3.90625 4.84375C3.90625 3.63563 4.88563 2.65625 6.09375 2.65625H16.5625C16.9939 2.65625 17.3438 3.00603 17.3438 3.4375V5.9375C17.3438 6.54156 16.8541 7.03125 16.25 7.03125H15.7017C15.9487 7.38558 16.0938 7.81648 16.0938 8.28125C16.0938 8.77177 15.9323 9.22459 15.6597 9.58945C16.6252 9.81683 17.3438 10.6839 17.3438 11.7188C17.3438 12.5921 16.832 13.3459 16.092 13.6966C16.092 13.6966 16.0938 15.405 16.0938 16.25C16.0938 16.8541 15.6041 17.3438 15 17.3438H4.84375C3.63563 17.3438 2.65625 16.3644 2.65625 15.1562C2.65625 14.2623 3.19242 13.4937 3.96072 13.1543C3.92538 13.0468 3.90625 12.9319 3.90625 12.8125V10.4688H3.75C3.14594 10.4688 2.65625 9.97906 2.65625 9.375V6.875C2.65625 6.44353 3.00603 6.09375 3.4375 6.09375H4.29834C4.05119 5.73942 3.90625 5.30852 3.90625 4.84375ZM8.59375 7.03125H13.9062C14.5966 7.03125 15.1562 7.59089 15.1562 8.28125C15.1562 8.97161 14.5966 9.53125 13.9062 9.53125H3.75C3.6637 9.53125 3.59375 9.4613 3.59375 9.375V7.03125H5.9375V7.05911C5.9375 7.5523 6.48197 7.85117 6.89805 7.58641L7.26562 7.35248L7.6332 7.58641C8.04928 7.85117 8.59375 7.5523 8.59375 7.05911V7.03125ZM8.59375 6.09375H16.25C16.3362 6.09375 16.4062 6.0238 16.4062 5.9375V3.59375H6.09375C5.40339 3.59375 4.84375 4.15339 4.84375 4.84375C4.84375 5.48119 5.32089 6.00719 5.9375 6.08408V5.15625C5.9375 4.72478 6.28728 4.375 6.71875 4.375H7.8125C8.24397 4.375 8.59375 4.72478 8.59375 5.15625V6.09375ZM4.84375 10.4688H15.1562C15.8466 10.4688 16.4062 11.0284 16.4062 11.7188C16.4062 12.4091 15.8466 12.9688 15.1562 12.9688V12.1875C15.1562 11.756 14.8065 11.4062 14.375 11.4062H13.2812C12.8498 11.4062 12.5 11.756 12.5 12.1875V12.9688H5C4.9137 12.9688 4.84375 12.8988 4.84375 12.8125V10.4688ZM12.5 13.9062H4.84375C4.15339 13.9062 3.59375 14.4659 3.59375 15.1562C3.59375 15.8466 4.15339 16.4062 4.84375 16.4062H15C15.0863 16.4062 15.1562 16.3362 15.1562 16.25V14.0904C15.1562 14.5835 14.6118 14.8824 14.1957 14.6177L13.8281 14.3837L13.4605 14.6177C13.0445 14.8824 12.5 14.5835 12.5 14.0904V13.9062ZM6.875 6.48984V5.3125H7.65625V6.48984C7.39788 6.32542 7.13337 6.32542 6.875 6.48984ZM13.4375 13.5211V12.3438H14.2188V13.5211C13.9604 13.3567 13.6959 13.3567 13.4375 13.5211Z" fill="black"/>
</svg>
