<svg width="20" height="20" viewBox="0 0 20 20" fill="none" xmlns="http://www.w3.org/2000/svg">
<g clip-path="url(#clip0_54_184)">
<path d="M19.4323 4.77177C19.3947 4.77047 18.6222 4.7444 17.4884 4.76945V2.44467C17.4884 2.10196 17.1957 1.83016 16.8512 1.85847C14.5903 2.04722 11.7139 3.04624 10 4.8684C8.28612 3.04624 5.40969 2.04722 3.14882 1.85847C2.8049 1.83047 2.51165 2.10106 2.51165 2.44467V4.83232C1.86741 4.808 1.25804 4.79087 0.605686 4.77169C0.276667 4.7613 0 5.02632 0 5.35965V16.0722C0 16.3818 0.239882 16.6384 0.548745 16.6591C2.88867 16.8166 6.80824 16.8343 9.76926 18.0972C10.0331 18.2099 10.27 18.0805 10.2308 18.0972C13.1918 16.8344 17.1106 16.8167 19.4513 16.6591C19.7602 16.6384 20.0001 16.3818 20.0001 16.0722V5.35965C20 5.04275 19.749 4.78283 19.4323 4.77177ZM16.3119 3.10628V13.1882C14.6156 13.5676 12.4658 14.3773 10.5882 16.0942C10.5882 15.5764 10.5882 6.26306 10.5882 5.98298C11.8753 4.3771 14.3128 3.40918 16.3119 3.10628ZM3.68812 3.10628C5.68722 3.40918 8.12471 4.3771 9.41177 5.98298V16.0942C7.5342 14.3773 5.38443 13.5676 3.68812 13.1882V3.10628ZM1.17647 15.5187V5.96545C1.59769 5.97792 2.0482 5.992 2.51165 6.00969V13.6676C2.51165 13.9506 2.71322 14.1935 2.99137 14.2457C4.33455 14.4978 6.08122 15.0451 7.70914 16.2233C5.38659 15.7024 2.95553 15.6187 1.17647 15.5187ZM18.8235 15.5187C17.0474 15.6186 14.6143 15.7022 12.2908 16.2233C13.9187 15.0451 15.6655 14.4978 17.0086 14.2457C17.2867 14.1935 17.4883 13.9506 17.4883 13.6676V5.94632C18.0297 5.9342 18.4909 5.93404 18.8235 5.93706V15.5187H18.8235Z" fill="black"/>
<path d="M7.8865 7.33799C7.43089 7.02058 6.64544 6.63098 5.8072 6.48933C5.48701 6.43498 5.18332 6.65101 5.12916 6.97133C5.07504 7.29164 5.29085 7.59521 5.6112 7.64933C6.25838 7.7587 6.87908 8.06996 7.21399 8.30329C7.48046 8.48894 7.84712 8.42352 8.03289 8.1569C8.21857 7.89035 8.15304 7.52368 7.8865 7.33799Z" fill="black"/>
<path d="M7.82759 10.6502C7.40842 10.3943 6.58854 9.94508 5.8072 9.81304C5.48701 9.75877 5.18332 9.97469 5.12916 10.295C5.07504 10.6154 5.29085 10.9189 5.6112 10.973C6.21987 11.0759 6.93512 11.4837 7.21438 11.6543C7.49199 11.8237 7.85387 11.7358 8.02301 11.4588C8.19234 11.1816 8.10485 10.8196 7.82759 10.6502Z" fill="black"/>
<path d="M12.7859 8.30332C13.1208 8.06999 13.7415 7.75873 14.3886 7.64936C14.709 7.59524 14.9248 7.29167 14.8707 6.97136C14.8166 6.65101 14.5129 6.43489 14.1926 6.48936C13.3544 6.63097 12.569 7.02061 12.1133 7.33803C11.8468 7.52371 11.7813 7.89038 11.967 8.15693C12.1528 8.42363 12.5195 8.48889 12.7859 8.30332Z" fill="black"/>
<path d="M14.1927 9.81309C13.4114 9.94509 12.5915 10.3943 12.1723 10.6503C11.8951 10.8196 11.8076 11.1816 11.9769 11.4589C12.1463 11.7361 12.5083 11.8236 12.7856 11.6543C13.0648 11.4837 13.7801 11.076 14.3887 10.9731C14.7091 10.919 14.9249 10.6154 14.8708 10.2951C14.8166 9.97474 14.513 9.75862 14.1927 9.81309Z" fill="black"/>
</g>
<defs>
<clipPath id="clip0_54_184">
<rect width="20" height="20" fill="white"/>
</clipPath>
</defs>
</svg>
