<svg width="20" height="20" viewBox="0 0 20 20" fill="none" xmlns="http://www.w3.org/2000/svg">
<path d="M18.3242 14.4581V8.93725L18.4782 8.84551C18.8051 8.6514 19 8.30506 19 7.91883C19 7.5326 18.8051 7.18559 18.4782 6.99148L10.5784 2.2969C9.91361 1.9007 9.08639 1.90137 8.42163 2.2969L0.521153 6.99214C0.194945 7.18625 0 7.5326 0 7.91883C0 8.30506 0.194945 8.6514 0.521153 8.84617L2.91638 10.2701V13.58C2.91638 14.3484 3.32056 15.0631 3.97038 15.4466L7.26755 17.3911C7.95571 17.7966 8.72769 18 9.49967 18C10.2717 18 11.043 17.7972 11.7318 17.3911L15.0283 15.4466C15.6788 15.0637 16.083 14.3484 16.083 13.58V10.2694L17.1545 9.63259V14.4581C16.8796 14.6496 16.699 14.972 16.699 15.3383C16.699 15.9259 17.1649 16.4026 17.7394 16.4026C18.3138 16.4026 18.7797 15.9259 18.7797 15.3383C18.7797 14.9727 18.5991 14.6502 18.3242 14.4581ZM14.9139 13.5793H14.9133C14.9133 13.921 14.7346 14.2388 14.4448 14.4089L11.1483 16.3534C10.1319 16.9523 8.86805 16.9523 7.85239 16.3534L4.55522 14.4089C4.26605 14.2388 4.0867 13.921 4.0867 13.5793V10.9648L8.42163 13.5414C8.75433 13.7389 9.12733 13.8379 9.50032 13.8379C9.87332 13.8379 10.2463 13.7395 10.579 13.5414L14.9139 10.9648V13.5793ZM9.99094 12.507C9.68812 12.6872 9.31188 12.6872 9.00906 12.507L1.28989 7.91883L9.00841 3.33061C9.31123 3.15046 9.68747 3.15046 9.99029 3.33061L17.7095 7.91816L9.99094 12.507Z" fill="black"/>
</svg>
