<svg width="16" height="17" viewBox="0 0 16 17" fill="none" xmlns="http://www.w3.org/2000/svg">
<path d="M2.28571 0.5C1.67951 0.5 1.09812 0.740816 0.66947 1.16947C0.240816 1.59812 0 2.17951 0 2.78571V5.07143C0 5.67764 0.240816 6.25902 0.66947 6.68767C1.09812 7.11633 1.67951 7.35714 2.28571 7.35714H4.57143C5.17764 7.35714 5.75902 7.11633 6.18767 6.68767C6.61633 6.25902 6.85714 5.67764 6.85714 5.07143V2.78571C6.85714 2.17951 6.61633 1.59812 6.18767 1.16947C5.75902 0.740816 5.17764 0.5 4.57143 0.5H2.28571ZM2.28571 9.64286C1.67951 9.64286 1.09812 9.88367 0.66947 10.3123C0.240816 10.741 0 11.3224 0 11.9286V14.2143C0 14.8205 0.240816 15.4019 0.66947 15.8305C1.09812 16.2592 1.67951 16.5 2.28571 16.5H4.57143C5.17764 16.5 5.75902 16.2592 6.18767 15.8305C6.61633 15.4019 6.85714 14.8205 6.85714 14.2143V11.9286C6.85714 11.3224 6.61633 10.741 6.18767 10.3123C5.75902 9.88367 5.17764 9.64286 4.57143 9.64286H2.28571ZM9.14286 2.78571C9.14286 2.17951 9.38367 1.59812 9.81233 1.16947C10.241 0.740816 10.8224 0.5 11.4286 0.5H13.7143C14.3205 0.5 14.9019 0.740816 15.3305 1.16947C15.7592 1.59812 16 2.17951 16 2.78571V5.07143C16 5.67764 15.7592 6.25902 15.3305 6.68767C14.9019 7.11633 14.3205 7.35714 13.7143 7.35714H11.4286C10.8224 7.35714 10.241 7.11633 9.81233 6.68767C9.38367 6.25902 9.14286 5.67764 9.14286 5.07143V2.78571ZM9.14286 11.9286C9.14286 11.3224 9.38367 10.741 9.81233 10.3123C10.241 9.88367 10.8224 9.64286 11.4286 9.64286H13.7143C14.3205 9.64286 14.9019 9.88367 15.3305 10.3123C15.7592 10.741 16 11.3224 16 11.9286V14.2143C16 14.8205 15.7592 15.4019 15.3305 15.8305C14.9019 16.2592 14.3205 16.5 13.7143 16.5H11.4286C10.8224 16.5 10.241 16.2592 9.81233 15.8305C9.38367 15.4019 9.14286 14.8205 9.14286 14.2143V11.9286Z" fill="#CF9F23"/>
</svg>
