<?xml version="1.0" encoding="UTF-8"?>
<svg id="Layer_2" data-name="Layer 2" xmlns="http://www.w3.org/2000/svg" viewBox="0 0 1523.37 520.36">
  <defs>
    <style>
      .cls-1 {
        fill: #c98e4b;
      }
    </style>
  </defs>
  <g id="Layer_1-2" data-name="Layer 1">
    <g>
      <g>
        <path class="cls-1" d="m0,314.34c0-.62.31-.93.93-.93h9.09c.62,0,.93.31.93.93v61.19c0,.62-.31.93-.93.93H.93c-.62,0-.93-.31-.93-.93v-61.19Z"/>
        <path class="cls-1" d="m41.16,377.47c-4.58,0-8.45-.74-11.64-2.22-3.18-1.48-5.7-3.09-7.56-4.82-.43-.43-.43-.87,0-1.3l5.28-5.56c.43-.43.87-.43,1.3,0,1.61,1.48,3.6,2.7,5.98,3.66,2.38.96,4.74,1.44,7.09,1.44,2.78,0,4.85-.49,6.21-1.48,1.36-.99,2.04-2.26,2.04-3.8,0-1.36-.51-2.44-1.53-3.25-1.02-.8-2.98-1.36-5.89-1.67l-4.82-.46c-4.57-.49-8.01-1.85-10.29-4.08-2.29-2.23-3.43-5.25-3.43-9.09,0-4.33,1.48-7.76,4.45-10.29,2.97-2.53,7.26-3.8,12.89-3.8,3.52,0,6.71.51,9.55,1.53,2.84,1.02,5.25,2.33,7.23,3.94.49.37.56.8.19,1.3l-4.54,5.47c-.37.43-.8.5-1.3.19-1.42-.99-3.17-1.86-5.24-2.6-2.07-.74-4.22-1.11-6.44-1.11s-3.91.43-5.05,1.3c-1.14.87-1.72,1.98-1.72,3.34s.49,2.33,1.48,3.11c.99.77,2.94,1.31,5.84,1.62l4.82.46c4.7.5,8.17,1.87,10.43,4.13,2.26,2.26,3.38,5.24,3.38,8.95,0,4.45-1.58,8.08-4.73,10.89-3.15,2.81-7.82,4.22-14,4.22Z"/>
        <path class="cls-1" d="m97.44,376.45c-.62,0-.93-.31-.93-.93v-3.24h-.09c-1.05,1.55-2.63,2.8-4.73,3.75-2.1.96-4.73,1.44-7.88,1.44-2.04,0-3.97-.28-5.79-.83-1.82-.56-3.42-1.39-4.77-2.5-1.36-1.11-2.44-2.52-3.24-4.22-.8-1.7-1.21-3.72-1.21-6.07,0-4.88,1.59-8.47,4.77-10.75,3.18-2.29,7.56-3.43,13.12-3.43h9.09c.37,0,.56-.19.56-.56v-2.13c0-2.6-.71-4.48-2.13-5.66-1.42-1.17-4.02-1.76-7.79-1.76-2.53,0-4.6.29-6.21.88-1.61.59-2.94,1.31-3.99,2.18-.56.43-.99.37-1.3-.19l-3.43-6.12c-.31-.49-.25-.89.19-1.2,1.79-1.3,3.95-2.35,6.49-3.15,2.53-.8,5.65-1.21,9.36-1.21,6.8,0,11.6,1.24,14.42,3.71,2.81,2.47,4.22,6.43,4.22,11.87v29.2c0,.62-.31.93-.93.93h-7.79Zm-11.03-7.42c3.21,0,5.67-.62,7.37-1.85,1.7-1.24,2.55-3.15,2.55-5.75v-3.43c0-.37-.19-.56-.56-.56h-7.42c-3.34,0-5.78.48-7.32,1.44-1.55.96-2.32,2.49-2.32,4.59,0,3.71,2.56,5.56,7.69,5.56Z"/>
        <path class="cls-1" d="m141.38,314.34c0-.62.31-.93.93-.93h23.46c6.68,0,11.62,1.53,14.83,4.59,3.21,3.06,4.82,7.12,4.82,12.19,0,3.59-.73,6.44-2.18,8.58-1.45,2.13-3.17,3.72-5.15,4.77v.19c.99.37,1.98.96,2.97,1.76.99.8,1.88,1.81,2.69,3.01.8,1.2,1.47,2.6,1.99,4.17.52,1.58.79,3.32.79,5.24,0,6.3-1.89,10.97-5.66,14-3.77,3.03-9.12,4.54-16.04,4.54h-22.53c-.62,0-.93-.31-.93-.93v-61.19Zm24.1,25.31c2.78,0,4.97-.76,6.58-2.27,1.61-1.52,2.41-3.51,2.41-5.98s-.8-4.56-2.41-6.07c-1.61-1.52-3.8-2.27-6.58-2.27h-12.61c-.37,0-.56.19-.56.56v15.48c0,.37.19.56.56.56h12.61Zm-13.16,26.61c0,.37.19.56.56.56h13.17c3.09,0,5.45-.8,7.09-2.41,1.64-1.61,2.46-3.74,2.46-6.4s-.82-4.7-2.46-6.3c-1.64-1.61-4-2.41-7.09-2.41h-13.17c-.37,0-.56.19-.56.56v16.41Z"/>
        <path class="cls-1" d="m198.4,323.33c-.62,0-.93-.31-.93-.93v-8.07c0-.62.31-.93.93-.93h8.53c.62,0,.93.31.93.93v8.07c0,.62-.31.93-.93.93h-8.53Zm0,53.12c-.62,0-.93-.31-.93-.93v-42.83c0-.62.31-.93.93-.93h8.53c.62,0,.93.31.93.93v42.83c0,.62-.31.93-.93.93h-8.53Z"/>
        <path class="cls-1" d="m249.67,376.45c-.62,0-.93-.31-.93-.93v-25.77c0-2.9-.71-5.25-2.13-7.04-1.42-1.79-3.52-2.69-6.3-2.69s-4.82.9-6.3,2.69c-1.48,1.79-2.23,4.14-2.23,7.04v25.77c0,.62-.31.93-.93.93h-8.53c-.62,0-.93-.31-.93-.93v-42.83c0-.62.31-.93.93-.93h8.53c.62,0,.93.31.93.93v3.25h.09c.99-1.42,2.46-2.64,4.4-3.66,1.95-1.02,4.4-1.53,7.37-1.53,2.41,0,4.56.42,6.44,1.25,1.88.83,3.51,1.99,4.87,3.48,1.36,1.48,2.39,3.23,3.11,5.24.71,2.01,1.07,4.22,1.07,6.63v28.18c0,.62-.31.93-.93.93h-8.53Z"/>
        <path class="cls-1" d="m314.1,377.47c-2.35,0-4.64-.22-6.86-.65-2.23-.43-4.34-1.02-6.35-1.76-2.01-.74-3.86-1.62-5.56-2.64-1.7-1.02-3.17-2.12-4.4-3.29-.5-.49-.56-.96-.19-1.39l5.75-6.67c.43-.49.87-.52,1.3-.09.99.8,2.12,1.61,3.38,2.41,1.27.8,2.63,1.52,4.08,2.13,1.45.62,2.98,1.13,4.59,1.53,1.61.4,3.31.6,5.1.6,3.77,0,6.69-.85,8.76-2.55,2.07-1.7,3.11-3.88,3.11-6.54,0-2.29-.83-4.16-2.5-5.61-1.67-1.45-4.67-2.49-8.99-3.11l-3.34-.46c-6.12-.86-10.82-2.77-14.09-5.7-3.28-2.94-4.91-7.03-4.91-12.29,0-2.84.49-5.44,1.48-7.79.99-2.35,2.41-4.36,4.26-6.03,1.85-1.67,4.09-2.95,6.72-3.85,2.63-.89,5.58-1.34,8.85-1.34,3.95,0,7.71.57,11.26,1.72,3.55,1.14,6.6,2.67,9.13,4.59.43.37.49.8.19,1.3l-4.45,6.86c-.37.5-.8.59-1.3.28-2.6-1.67-5.1-2.91-7.51-3.71-2.41-.8-4.95-1.2-7.6-1.2-3.21,0-5.67.79-7.37,2.36-1.7,1.58-2.55,3.6-2.55,6.07,0,2.16.87,3.97,2.6,5.42,1.73,1.45,4.73,2.49,8.99,3.1l3.34.46c6.12.87,10.78,2.77,14,5.7,3.21,2.94,4.82,7.12,4.82,12.56,0,2.78-.5,5.38-1.48,7.79-.99,2.41-2.49,4.48-4.5,6.21-2.01,1.73-4.5,3.09-7.46,4.08-2.97.99-6.4,1.48-10.29,1.48Z"/>
        <path class="cls-1" d="m375.11,376.45c-.62,0-.93-.31-.93-.93v-3.24h-.09c-1.05,1.55-2.63,2.8-4.73,3.75-2.1.96-4.73,1.44-7.88,1.44-2.04,0-3.97-.28-5.79-.83-1.82-.56-3.42-1.39-4.77-2.5-1.36-1.11-2.44-2.52-3.24-4.22-.8-1.7-1.21-3.72-1.21-6.07,0-4.88,1.59-8.47,4.77-10.75,3.18-2.29,7.56-3.43,13.12-3.43h9.09c.37,0,.56-.19.56-.56v-2.13c0-2.6-.71-4.48-2.13-5.66-1.42-1.17-4.02-1.76-7.79-1.76-2.53,0-4.6.29-6.21.88-1.61.59-2.94,1.31-3.99,2.18-.56.43-.99.37-1.3-.19l-3.43-6.12c-.31-.49-.25-.89.19-1.2,1.79-1.3,3.95-2.35,6.49-3.15,2.53-.8,5.65-1.21,9.36-1.21,6.8,0,11.6,1.24,14.42,3.71,2.81,2.47,4.22,6.43,4.22,11.87v29.2c0,.62-.31.93-.93.93h-7.79Zm-11.03-7.42c3.21,0,5.67-.62,7.37-1.85,1.7-1.24,2.55-3.15,2.55-5.75v-3.43c0-.37-.19-.56-.56-.56h-7.42c-3.34,0-5.78.48-7.32,1.44-1.55.96-2.32,2.49-2.32,4.59,0,3.71,2.56,5.56,7.69,5.56Z"/>
        <path class="cls-1" d="m409.04,377.01c-4.39,0-7.53-1.05-9.41-3.15-1.89-2.1-2.83-5.31-2.83-9.64v-49.88c0-.62.31-.93.93-.93h8.53c.62,0,.93.31.93.93v49.32c0,1.55.31,2.61.93,3.2.62.59,1.61.88,2.97.88h2.04c.62,0,.93.31.93.93v7.42c0,.62-.31.93-.93.93h-4.08Z"/>
        <path class="cls-1" d="m479.59,376.45c-.62,0-.93-.31-.93-.93v-25.77c0-2.9-.71-5.25-2.13-7.04-1.42-1.79-3.52-2.69-6.3-2.69s-4.82.9-6.3,2.69c-1.48,1.79-2.23,4.14-2.23,7.04v25.77c0,.62-.31.93-.93.93h-8.53c-.62,0-.93-.31-.93-.93v-25.77c0-2.9-.71-5.25-2.13-7.04-1.42-1.79-3.52-2.69-6.3-2.69s-4.82.9-6.3,2.69c-1.48,1.79-2.23,4.14-2.23,7.04v25.77c0,.62-.31.93-.93.93h-8.53c-.62,0-.93-.31-.93-.93v-42.83c0-.62.31-.93.93-.93h8.53c.62,0,.93.31.93.93v3.25h.09c.99-1.42,2.46-2.64,4.4-3.66,1.95-1.02,4.4-1.53,7.37-1.53,2.66,0,5.02.51,7.09,1.53,2.07,1.02,3.79,2.49,5.15,4.4h.09c1.73-1.85,3.74-3.31,6.03-4.36,2.29-1.05,5.04-1.58,8.25-1.58,2.6,0,4.9.42,6.91,1.25,2.01.83,3.71,1.99,5.1,3.48,1.39,1.48,2.44,3.23,3.15,5.24.71,2.01,1.07,4.22,1.07,6.63v28.18c0,.62-.31.93-.93.93h-8.53Z"/>
        <path class="cls-1" d="m528.73,376.45c-.62,0-.93-.31-.93-.93v-3.24h-.09c-1.05,1.55-2.63,2.8-4.73,3.75-2.1.96-4.73,1.44-7.88,1.44-2.04,0-3.97-.28-5.79-.83-1.82-.56-3.42-1.39-4.77-2.5-1.36-1.11-2.44-2.52-3.24-4.22-.8-1.7-1.21-3.72-1.21-6.07,0-4.88,1.59-8.47,4.77-10.75,3.18-2.29,7.56-3.43,13.12-3.43h9.09c.37,0,.56-.19.56-.56v-2.13c0-2.6-.71-4.48-2.13-5.66-1.42-1.17-4.02-1.76-7.79-1.76-2.53,0-4.6.29-6.21.88-1.61.59-2.94,1.31-3.99,2.18-.56.43-.99.37-1.3-.19l-3.43-6.12c-.31-.49-.25-.89.19-1.2,1.79-1.3,3.95-2.35,6.49-3.15,2.53-.8,5.65-1.21,9.36-1.21,6.8,0,11.6,1.24,14.42,3.71,2.81,2.47,4.22,6.43,4.22,11.87v29.2c0,.62-.31.93-.93.93h-7.79Zm-11.03-7.42c3.21,0,5.67-.62,7.37-1.85,1.7-1.24,2.55-3.15,2.55-5.75v-3.43c0-.37-.19-.56-.56-.56h-7.42c-3.34,0-5.78.48-7.32,1.44-1.55.96-2.32,2.49-2.32,4.59,0,3.71,2.56,5.56,7.69,5.56Z"/>
        <path class="cls-1" d="m578.88,376.45c-.62,0-.93-.31-.93-.93v-25.77c0-2.9-.71-5.25-2.13-7.04-1.42-1.79-3.52-2.69-6.3-2.69s-4.82.9-6.3,2.69c-1.48,1.79-2.23,4.14-2.23,7.04v25.77c0,.62-.31.93-.93.93h-8.53c-.62,0-.93-.31-.93-.93v-42.83c0-.62.31-.93.93-.93h8.53c.62,0,.93.31.93.93v3.25h.09c.99-1.42,2.46-2.64,4.4-3.66,1.95-1.02,4.4-1.53,7.37-1.53,2.41,0,4.56.42,6.44,1.25,1.88.83,3.51,1.99,4.87,3.48,1.36,1.48,2.39,3.23,3.11,5.24.71,2.01,1.07,4.22,1.07,6.63v28.18c0,.62-.31.93-.93.93h-8.53Z"/>
        <path class="cls-1" d="m623.48,314.34c0-.62.31-.93.93-.93h39.49c.62,0,.93.31.93.93v7.97c0,.62-.31.93-.93.93h-28.93c-.37,0-.56.19-.56.56v15.39c0,.37.19.56.56.56h24.38c.62,0,.93.31.93.93v7.97c0,.62-.31.93-.93.93h-24.38c-.37,0-.56.19-.56.56v15.95c0,.37.19.56.56.56h28.93c.62,0,.93.31.93.93v7.97c0,.62-.31.93-.93.93h-39.49c-.62,0-.93-.31-.93-.93v-61.19Z"/>
        <path class="cls-1" d="m703.67,376.45c-.62,0-.93-.31-.93-.93v-3.34h-.09c-1.05,1.55-2.54,2.81-4.45,3.8-1.92.99-4.39,1.48-7.42,1.48-3.83,0-7.08-.9-9.73-2.69-2.66-1.79-4.57-4.48-5.75-8.07-.56-1.73-.96-3.51-1.21-5.33-.25-1.82-.37-4.25-.37-7.28s.12-5.45.37-7.28c.25-1.82.65-3.6,1.21-5.33,1.17-3.58,3.09-6.27,5.75-8.06,2.66-1.79,5.9-2.69,9.73-2.69,3.03,0,5.5.5,7.42,1.48,1.91.99,3.4,2.26,4.45,3.8h.09v-21.69c0-.62.31-.93.93-.93h8.53c.62,0,.93.31.93.93v61.19c0,.62-.31.93-.93.93h-8.53Zm-10.2-8.25c4.33,0,7.11-1.92,8.34-5.75.31-1.05.54-2.19.69-3.43.15-1.24.23-2.87.23-4.91s-.08-3.68-.23-4.91c-.16-1.23-.39-2.38-.69-3.43-1.24-3.83-4.02-5.75-8.34-5.75s-7.02,1.92-8.25,5.75c-.31,1.05-.54,2.2-.7,3.43-.15,1.24-.23,2.87-.23,4.91s.08,3.68.23,4.91c.15,1.24.39,2.38.7,3.43,1.24,3.83,3.99,5.75,8.25,5.75Z"/>
        <path class="cls-1" d="m754.11,376.45c-.62,0-.93-.31-.93-.93v-3.24h-.09c-1.24,1.55-2.77,2.8-4.59,3.75-1.82.96-4.16,1.44-7,1.44-2.41,0-4.56-.42-6.44-1.25-1.89-.83-3.49-1.99-4.82-3.48-1.33-1.48-2.35-3.23-3.06-5.24-.71-2.01-1.07-4.22-1.07-6.63v-28.18c0-.62.31-.93.93-.93h8.53c.62,0,.93.31.93.93v25.77c0,2.91.68,5.25,2.04,7.05,1.36,1.79,3.46,2.69,6.3,2.69,2.66,0,4.71-.89,6.16-2.69,1.45-1.79,2.18-4.11,2.18-6.95v-25.87c0-.62.31-.93.93-.93h8.53c.62,0,.93.31.93.93v42.83c0,.62-.31.93-.93.93h-8.53Z"/>
        <path class="cls-1" d="m794.53,377.47c-4.51,0-8.39-1.05-11.64-3.15-3.24-2.1-5.52-5.16-6.81-9.18-.93-2.78-1.39-6.46-1.39-11.03s.46-8.25,1.39-11.03c1.3-4.02,3.57-7.08,6.81-9.18,3.24-2.1,7.12-3.15,11.64-3.15,3.34,0,6.3.62,8.9,1.86,2.6,1.24,4.79,2.94,6.58,5.1.37.5.34.93-.09,1.3l-5.84,5.1c-.49.37-.93.31-1.3-.19-1.11-1.23-2.3-2.19-3.57-2.87-1.27-.68-2.83-1.02-4.68-1.02-1.98,0-3.69.48-5.15,1.44-1.45.96-2.52,2.43-3.2,4.4-.37,1.11-.62,2.33-.74,3.66-.12,1.33-.19,2.86-.19,4.59s.06,3.28.19,4.64c.12,1.36.37,2.6.74,3.71.68,1.92,1.75,3.35,3.2,4.31,1.45.96,3.17,1.44,5.15,1.44,1.85,0,3.41-.34,4.68-1.02,1.27-.68,2.46-1.64,3.57-2.87.37-.43.8-.46,1.3-.09l5.84,5.1c.37.31.4.74.09,1.3-1.79,2.1-3.99,3.77-6.58,5.01-2.6,1.23-5.56,1.85-8.9,1.85Z"/>
        <path class="cls-1" d="m846.17,376.45c-.62,0-.93-.31-.93-.93v-3.24h-.09c-1.05,1.55-2.63,2.8-4.73,3.75-2.1.96-4.73,1.44-7.88,1.44-2.04,0-3.97-.28-5.79-.83-1.82-.56-3.42-1.39-4.77-2.5-1.36-1.11-2.44-2.52-3.24-4.22-.8-1.7-1.21-3.72-1.21-6.07,0-4.88,1.59-8.47,4.77-10.75,3.18-2.29,7.56-3.43,13.12-3.43h9.09c.37,0,.56-.19.56-.56v-2.13c0-2.6-.71-4.48-2.13-5.66-1.42-1.17-4.02-1.76-7.79-1.76-2.53,0-4.6.29-6.21.88-1.61.59-2.94,1.31-3.99,2.18-.56.43-.99.37-1.3-.19l-3.43-6.12c-.31-.49-.25-.89.19-1.2,1.79-1.3,3.95-2.35,6.49-3.15,2.53-.8,5.65-1.21,9.36-1.21,6.8,0,11.6,1.24,14.42,3.71,2.81,2.47,4.22,6.43,4.22,11.87v29.2c0,.62-.31.93-.93.93h-7.79Zm-11.03-7.42c3.21,0,5.67-.62,7.37-1.85,1.7-1.24,2.55-3.15,2.55-5.75v-3.43c0-.37-.19-.56-.56-.56h-7.42c-3.34,0-5.78.48-7.32,1.44-1.55.96-2.32,2.49-2.32,4.59,0,3.71,2.56,5.56,7.69,5.56Z"/>
        <path class="cls-1" d="m881.12,377.01c-4.51,0-7.71-1.08-9.6-3.24-1.89-2.16-2.83-5.44-2.83-9.83v-23.55c0-.37-.19-.56-.56-.56h-2.97c-.62,0-.93-.31-.93-.93v-6.21c0-.62.31-.93.93-.93h2.97c.37,0,.56-.19.56-.56v-12.24c0-.62.31-.93.93-.93h8.53c.62,0,.93.31.93.93v12.24c0,.37.19.56.56.56h5.93c.62,0,.93.31.93.93v6.21c0,.62-.31.93-.93.93h-5.93c-.37,0-.56.19-.56.56v23.18c0,1.61.34,2.7,1.02,3.29.68.59,1.73.88,3.15.88h2.32c.62,0,.93.31.93.93v7.42c0,.62-.31.93-.93.93h-4.45Z"/>
        <path class="cls-1" d="m898.74,323.33c-.62,0-.93-.31-.93-.93v-8.07c0-.62.31-.93.93-.93h8.53c.62,0,.93.31.93.93v8.07c0,.62-.31.93-.93.93h-8.53Zm0,53.12c-.62,0-.93-.31-.93-.93v-42.83c0-.62.31-.93.93-.93h8.53c.62,0,.93.31.93.93v42.83c0,.62-.31.93-.93.93h-8.53Z"/>
        <path class="cls-1" d="m939.25,377.47c-4.57,0-8.48-1.08-11.73-3.24-3.24-2.16-5.49-5.19-6.72-9.09-.5-1.61-.87-3.23-1.11-4.87-.25-1.64-.37-3.69-.37-6.16s.12-4.53.37-6.17c.25-1.64.62-3.26,1.11-4.87,1.24-3.89,3.48-6.92,6.72-9.09,3.24-2.16,7.15-3.25,11.73-3.25s8.39,1.08,11.64,3.25c3.24,2.16,5.48,5.19,6.72,9.09.49,1.61.87,3.23,1.11,4.87.25,1.64.37,3.7.37,6.17s-.12,4.53-.37,6.16c-.25,1.64-.62,3.26-1.11,4.87-1.24,3.89-3.48,6.92-6.72,9.09-3.24,2.16-7.12,3.24-11.64,3.24Zm0-9.27c2.1,0,3.85-.51,5.24-1.53,1.39-1.02,2.43-2.46,3.11-4.31.37-1.17.62-2.37.74-3.57.12-1.2.19-2.77.19-4.68s-.06-3.46-.19-4.64c-.12-1.17-.37-2.38-.74-3.62-.68-1.85-1.72-3.29-3.11-4.31-1.39-1.02-3.14-1.53-5.24-1.53s-3.86.51-5.28,1.53c-1.42,1.02-2.47,2.46-3.15,4.31-.37,1.24-.62,2.44-.74,3.62-.12,1.17-.19,2.72-.19,4.64s.06,3.48.19,4.68c.12,1.2.37,2.4.74,3.57.68,1.85,1.73,3.29,3.15,4.31,1.42,1.02,3.18,1.53,5.28,1.53Z"/>
        <path class="cls-1" d="m998.49,376.45c-.62,0-.93-.31-.93-.93v-25.77c0-2.9-.71-5.25-2.13-7.04-1.42-1.79-3.52-2.69-6.3-2.69s-4.82.9-6.3,2.69c-1.48,1.79-2.23,4.14-2.23,7.04v25.77c0,.62-.31.93-.93.93h-8.53c-.62,0-.93-.31-.93-.93v-42.83c0-.62.31-.93.93-.93h8.53c.62,0,.93.31.93.93v3.25h.09c.99-1.42,2.46-2.64,4.4-3.66,1.95-1.02,4.4-1.53,7.37-1.53,2.41,0,4.56.42,6.44,1.25,1.88.83,3.51,1.99,4.87,3.48,1.36,1.48,2.39,3.23,3.11,5.24.71,2.01,1.07,4.22,1.07,6.63v28.18c0,.62-.31.93-.93.93h-8.53Z"/>
        <path class="cls-1" d="m363.7,473.25c-.31-.99-.57-1.96-.79-2.92-.22-.96-.39-2.07-.51-3.34-.12-1.27-.22-2.75-.28-4.45-.06-1.7-.09-3.82-.09-6.35s.03-4.57.09-6.3c.06-1.73.15-3.23.28-4.5.12-1.27.29-2.38.51-3.34.22-.96.48-1.93.79-2.92,1.61-5.19,4.31-9.07,8.11-11.63,3.8-2.56,8.39-3.85,13.77-3.85,5.07,0,9.44,1.21,13.12,3.62,3.68,2.41,6.41,5.72,8.2,9.92.19.56.03.93-.46,1.11l-7.88,3.8c-.56.31-.96.16-1.21-.46-1.05-2.22-2.49-4.14-4.31-5.75-1.82-1.61-4.31-2.41-7.46-2.41s-5.46.74-7.28,2.22c-1.82,1.48-3.17,3.52-4.03,6.12-.19.68-.36,1.36-.51,2.04-.16.68-.28,1.56-.37,2.64-.09,1.08-.16,2.4-.19,3.94-.03,1.55-.05,3.46-.05,5.75s.02,4.28.05,5.79c.03,1.52.09,2.81.19,3.89.09,1.08.22,1.98.37,2.69.15.71.32,1.38.51,1.99.86,2.6,2.21,4.64,4.03,6.12,1.82,1.48,4.25,2.23,7.28,2.23s5.64-.8,7.46-2.41c1.82-1.61,3.26-3.52,4.31-5.75.25-.62.65-.77,1.21-.46l7.88,3.8c.49.19.65.56.46,1.11-1.79,4.2-4.53,7.51-8.2,9.92-3.68,2.41-8.05,3.62-13.12,3.62-5.38,0-9.97-1.28-13.77-3.85-3.8-2.56-6.51-6.44-8.11-11.64Z"/>
        <path class="cls-1" d="m445.28,487.71c-.62,0-.93-.31-.93-.93v-25.77c0-2.9-.71-5.25-2.13-7.04-1.42-1.79-3.52-2.69-6.3-2.69s-4.82.9-6.3,2.69c-1.48,1.79-2.23,4.14-2.23,7.04v25.77c0,.62-.31.93-.93.93h-8.53c-.62,0-.93-.31-.93-.93v-61.19c0-.62.31-.93.93-.93h8.53c.62,0,.93.31.93.93v21.6h.09c.99-1.42,2.46-2.64,4.4-3.66,1.95-1.02,4.4-1.53,7.37-1.53,2.41,0,4.56.42,6.44,1.25,1.88.83,3.51,1.99,4.87,3.48,1.36,1.48,2.39,3.23,3.11,5.24.71,2.01,1.07,4.22,1.07,6.63v28.18c0,.62-.31.93-.93.93h-8.53Z"/>
        <path class="cls-1" d="m494.42,487.71c-.62,0-.93-.31-.93-.93v-3.24h-.09c-1.05,1.55-2.63,2.8-4.73,3.75-2.1.96-4.73,1.44-7.88,1.44-2.04,0-3.97-.28-5.79-.83-1.82-.56-3.42-1.39-4.77-2.5-1.36-1.11-2.44-2.52-3.24-4.22-.8-1.7-1.21-3.72-1.21-6.07,0-4.88,1.59-8.47,4.77-10.75,3.18-2.29,7.56-3.43,13.12-3.43h9.09c.37,0,.56-.19.56-.56v-2.13c0-2.6-.71-4.48-2.13-5.66-1.42-1.17-4.02-1.76-7.79-1.76-2.53,0-4.6.29-6.21.88-1.61.59-2.94,1.31-3.99,2.18-.56.43-.99.37-1.3-.19l-3.43-6.12c-.31-.49-.25-.89.19-1.2,1.79-1.3,3.95-2.35,6.49-3.15,2.53-.8,5.65-1.21,9.36-1.21,6.8,0,11.6,1.24,14.42,3.71,2.81,2.47,4.22,6.43,4.22,11.87v29.2c0,.62-.31.93-.93.93h-7.79Zm-11.03-7.42c3.21,0,5.67-.62,7.37-1.85,1.7-1.24,2.55-3.15,2.55-5.75v-3.43c0-.37-.19-.56-.56-.56h-7.42c-3.34,0-5.78.48-7.32,1.44-1.55.96-2.32,2.49-2.32,4.59,0,3.71,2.56,5.56,7.69,5.56Z"/>
        <path class="cls-1" d="m517.23,487.71c-.62,0-.93-.31-.93-.93v-42.83c0-.62.31-.93.93-.93h8.53c.62,0,.93.31.93.93v3.8h.09c1.05-1.73,2.53-3.12,4.45-4.17,1.91-1.05,4.3-1.58,7.14-1.58,1.79,0,3.51.32,5.15.97,1.64.65,3.04,1.56,4.22,2.74.43.43.49.87.19,1.3l-4.91,6.21c-.37.5-.8.56-1.3.19-1.05-.68-2.1-1.2-3.15-1.58-1.05-.37-2.19-.56-3.43-.56-2.97,0-5.12.99-6.44,2.97-1.33,1.98-1.99,4.76-1.99,8.34v24.2c0,.62-.31.93-.93.93h-8.53Z"/>
        <path class="cls-1" d="m556.44,434.59c-.62,0-.93-.31-.93-.93v-8.07c0-.62.31-.93.93-.93h8.53c.62,0,.93.31.93.93v8.07c0,.62-.31.93-.93.93h-8.53Zm0,53.12c-.62,0-.93-.31-.93-.93v-42.83c0-.62.31-.93.93-.93h8.53c.62,0,.93.31.93.93v42.83c0,.62-.31.93-.93.93h-8.53Z"/>
        <path class="cls-1" d="m592.51,488.27c-4.51,0-7.71-1.08-9.6-3.24-1.89-2.16-2.83-5.44-2.83-9.83v-23.55c0-.37-.19-.56-.56-.56h-2.97c-.62,0-.93-.31-.93-.93v-6.21c0-.62.31-.93.93-.93h2.97c.37,0,.56-.19.56-.56v-12.24c0-.62.31-.93.93-.93h8.53c.62,0,.93.31.93.93v12.24c0,.37.19.56.56.56h5.93c.62,0,.93.31.93.93v6.21c0,.62-.31.93-.93.93h-5.93c-.37,0-.56.19-.56.56v23.18c0,1.61.34,2.7,1.02,3.29.68.59,1.73.88,3.15.88h2.32c.62,0,.93.31.93.93v7.42c0,.62-.31.93-.93.93h-4.45Z"/>
        <path class="cls-1" d="m635.8,487.71c-.62,0-.93-.31-.93-.93v-3.24h-.09c-1.05,1.55-2.63,2.8-4.73,3.75-2.1.96-4.73,1.44-7.88,1.44-2.04,0-3.97-.28-5.79-.83-1.82-.56-3.42-1.39-4.77-2.5-1.36-1.11-2.44-2.52-3.24-4.22-.8-1.7-1.21-3.72-1.21-6.07,0-4.88,1.59-8.47,4.77-10.75,3.18-2.29,7.56-3.43,13.12-3.43h9.09c.37,0,.56-.19.56-.56v-2.13c0-2.6-.71-4.48-2.13-5.66-1.42-1.17-4.02-1.76-7.79-1.76-2.53,0-4.6.29-6.21.88-1.61.59-2.94,1.31-3.99,2.18-.56.43-.99.37-1.3-.19l-3.43-6.12c-.31-.49-.25-.89.19-1.2,1.79-1.3,3.95-2.35,6.49-3.15,2.53-.8,5.65-1.21,9.36-1.21,6.8,0,11.6,1.24,14.42,3.71,2.81,2.47,4.22,6.43,4.22,11.87v29.2c0,.62-.31.93-.93.93h-7.79Zm-11.03-7.42c3.21,0,5.67-.62,7.37-1.85,1.7-1.24,2.55-3.15,2.55-5.75v-3.43c0-.37-.19-.56-.56-.56h-7.42c-3.34,0-5.78.48-7.32,1.44-1.55.96-2.32,2.49-2.32,4.59,0,3.71,2.56,5.56,7.69,5.56Z"/>
        <path class="cls-1" d="m680.03,488.73c-3.03,0-5.5-.5-7.42-1.48-1.92-.99-3.4-2.25-4.45-3.8h-.09v3.34c0,.62-.31.93-.93.93h-8.53c-.62,0-.93-.31-.93-.93v-61.19c0-.62.31-.93.93-.93h8.53c.62,0,.93.31.93.93v21.69h.09c1.05-1.54,2.53-2.81,4.45-3.8,1.91-.99,4.39-1.48,7.42-1.48,3.83,0,7.08.9,9.73,2.69,2.66,1.79,4.57,4.48,5.75,8.06.56,1.73.96,3.51,1.2,5.33.25,1.82.37,4.25.37,7.28s-.13,5.46-.37,7.28c-.25,1.82-.65,3.6-1.2,5.33-1.17,3.59-3.09,6.27-5.75,8.07-2.66,1.79-5.9,2.69-9.73,2.69Zm-2.69-9.27c4.26,0,7.01-1.92,8.25-5.75.31-1.05.54-2.19.69-3.43.15-1.24.23-2.87.23-4.91s-.08-3.68-.23-4.91c-.16-1.23-.39-2.38-.69-3.43-1.24-3.83-3.99-5.75-8.25-5.75s-7.11,1.92-8.34,5.75c-.31,1.05-.54,2.2-.7,3.43-.15,1.24-.23,2.87-.23,4.91s.08,3.68.23,4.91c.15,1.24.39,2.38.7,3.43,1.24,3.83,4.02,5.75,8.34,5.75Z"/>
        <path class="cls-1" d="m720.26,488.27c-4.39,0-7.53-1.05-9.41-3.15-1.89-2.1-2.83-5.31-2.83-9.64v-49.88c0-.62.31-.93.93-.93h8.53c.62,0,.93.31.93.93v49.32c0,1.55.31,2.61.93,3.2.62.59,1.61.88,2.97.88h2.04c.62,0,.93.31.93.93v7.42c0,.62-.31.93-.93.93h-4.08Z"/>
        <path class="cls-1" d="m752.99,488.73c-4.76,0-8.75-1.1-11.96-3.29-3.21-2.19-5.44-5.24-6.68-9.13-.5-1.42-.88-3.01-1.16-4.77-.28-1.76-.42-3.82-.42-6.16s.12-4.42.37-6.21c.25-1.79.62-3.4,1.11-4.82,1.24-3.89,3.48-6.92,6.72-9.09,3.24-2.16,7.09-3.25,11.54-3.25s8.54,1.1,11.73,3.29c3.18,2.2,5.39,5.21,6.63,9.04.25.8.46,1.61.65,2.41s.34,1.73.46,2.78c.12,1.05.22,2.24.28,3.57.06,1.33.09,2.89.09,4.68,0,.62-.34.93-1.02.93h-27.54c-.37,0-.56.19-.56.56,0,.68.06,1.3.19,1.86.12.56.28,1.08.46,1.58,1.54,4.51,4.88,6.77,10.01,6.77,2.53,0,4.64-.4,6.3-1.2,1.67-.8,3.06-1.82,4.17-3.06.49-.49.96-.56,1.39-.19l5.47,4.82c.43.37.46.8.09,1.3-1.92,2.23-4.42,4.05-7.51,5.47-3.09,1.42-6.71,2.13-10.85,2.13Zm8.9-28.37c0-1.42-.19-2.69-.56-3.8-.62-1.79-1.7-3.2-3.24-4.22-1.55-1.02-3.37-1.53-5.47-1.53s-4.02.51-5.56,1.53c-1.55,1.02-2.63,2.43-3.25,4.22-.37,1.11-.56,2.38-.56,3.8,0,.37.19.56.56.56h17.52c.37,0,.56-.19.56-.56Z"/>
        <path class="cls-1" d="m818.63,487.71c-.62,0-.93-.31-.93-.93v-51.73c0-.37-.19-.56-.56-.56h-16.5c-.62,0-.93-.31-.93-.93v-7.97c0-.62.31-.93.93-.93h45.06c.62,0,.93.31.93.93v7.97c0,.62-.31.93-.93.93h-16.5c-.37,0-.56.19-.56.56v51.73c0,.62-.31.93-.93.93h-9.09Z"/>
        <path class="cls-1" d="m856.36,487.71c-.62,0-.93-.31-.93-.93v-42.83c0-.62.31-.93.93-.93h8.53c.62,0,.93.31.93.93v3.8h.09c1.05-1.73,2.53-3.12,4.45-4.17,1.91-1.05,4.3-1.58,7.14-1.58,1.79,0,3.51.32,5.15.97,1.64.65,3.04,1.56,4.22,2.74.43.43.49.87.19,1.3l-4.91,6.21c-.37.5-.8.56-1.3.19-1.05-.68-2.1-1.2-3.15-1.58-1.05-.37-2.19-.56-3.43-.56-2.97,0-5.12.99-6.44,2.97-1.33,1.98-1.99,4.76-1.99,8.34v24.2c0,.62-.31.93-.93.93h-8.53Z"/>
        <path class="cls-1" d="m922.09,487.71c-.62,0-.93-.31-.93-.93v-3.24h-.09c-1.24,1.55-2.77,2.8-4.59,3.75-1.82.96-4.16,1.44-7,1.44-2.41,0-4.56-.42-6.44-1.25-1.89-.83-3.49-1.99-4.82-3.48-1.33-1.48-2.35-3.23-3.06-5.24-.71-2.01-1.07-4.22-1.07-6.63v-28.18c0-.62.31-.93.93-.93h8.53c.62,0,.93.31.93.93v25.77c0,2.91.68,5.25,2.04,7.05,1.36,1.79,3.46,2.69,6.3,2.69,2.66,0,4.71-.89,6.16-2.69,1.45-1.79,2.18-4.11,2.18-6.95v-25.87c0-.62.31-.93.93-.93h8.53c.62,0,.93.31.93.93v42.83c0,.62-.31.93-.93.93h-8.53Z"/>
        <path class="cls-1" d="m961.59,488.73c-4.58,0-8.45-.74-11.64-2.22-3.18-1.48-5.7-3.09-7.56-4.82-.43-.43-.43-.87,0-1.3l5.28-5.56c.43-.43.87-.43,1.3,0,1.61,1.48,3.6,2.7,5.98,3.66,2.38.96,4.74,1.44,7.09,1.44,2.78,0,4.85-.49,6.21-1.48,1.36-.99,2.04-2.26,2.04-3.8,0-1.36-.51-2.44-1.53-3.25-1.02-.8-2.98-1.36-5.89-1.67l-4.82-.46c-4.57-.49-8.01-1.85-10.29-4.08-2.29-2.23-3.43-5.25-3.43-9.09,0-4.33,1.48-7.76,4.45-10.29,2.97-2.53,7.26-3.8,12.89-3.8,3.52,0,6.71.51,9.55,1.53,2.84,1.02,5.25,2.33,7.23,3.94.49.37.56.8.19,1.3l-4.54,5.47c-.37.43-.8.5-1.3.19-1.42-.99-3.17-1.86-5.24-2.6-2.07-.74-4.22-1.11-6.44-1.11s-3.91.43-5.05,1.3c-1.14.87-1.72,1.98-1.72,3.34s.49,2.33,1.48,3.11c.99.77,2.94,1.31,5.84,1.62l4.82.46c4.7.5,8.17,1.87,10.43,4.13,2.26,2.26,3.38,5.24,3.38,8.95,0,4.45-1.58,8.08-4.73,10.89-3.15,2.81-7.82,4.22-14,4.22Z"/>
        <path class="cls-1" d="m1004.33,488.27c-4.51,0-7.71-1.08-9.6-3.24-1.89-2.16-2.83-5.44-2.83-9.83v-23.55c0-.37-.19-.56-.56-.56h-2.97c-.62,0-.93-.31-.93-.93v-6.21c0-.62.31-.93.93-.93h2.97c.37,0,.56-.19.56-.56v-12.24c0-.62.31-.93.93-.93h8.53c.62,0,.93.31.93.93v12.24c0,.37.19.56.56.56h5.93c.62,0,.93.31.93.93v6.21c0,.62-.31.93-.93.93h-5.93c-.37,0-.56.19-.56.56v23.18c0,1.61.34,2.7,1.02,3.29.68.59,1.73.88,3.15.88h2.32c.62,0,.93.31.93.93v7.42c0,.62-.31.93-.93.93h-4.45Z"/>
        <path class="cls-1" d="m208.42,135.59c-4.48,0-8.3-.59-11.46-1.76-3.16-1.18-5.74-2.77-7.72-4.79-1.99-2.01-3.46-4.31-4.41-6.88-.95-2.58-1.43-5.26-1.43-8.06,0-1.96.31-4.44.92-7.43.62-2.99,1.59-6.22,2.94-9.7l8.65,2.85c-.9,2.52-1.54,4.8-1.93,6.84-.39,2.04-.59,3.85-.59,5.42,0,2.91.66,5.36,1.97,7.35,1.31,1.99,3.2,3.48,5.67,4.49,2.46,1.01,5.4,1.51,8.82,1.51,1.96,0,3.9-.25,5.84-.75,1.93-.5,3.65-1.26,5.16-2.27,1.51-1.01,2.73-2.22,3.65-3.65s1.38-3.04,1.38-4.83c0-1.34-.17-2.87-.5-4.57-.34-1.71-.91-3.69-1.72-5.96-.81-2.27-1.95-4.85-3.4-7.77l7.98-9.66c2.13,3.86,3.68,7.38,4.66,10.54.98,3.16,1.61,5.98,1.89,8.44.28,2.46.42,4.48.42,6.04,0,4.98-1.09,9.32-3.28,13.01-2.18,3.69-5.28,6.55-9.28,8.56-4,2.01-8.75,3.02-14.23,3.02Zm.42-49.62l-7.56-7.56,7.14-7.64,7.47,7.64-7.05,7.56Zm53.4,29.55c-2.85,0-5.25-.34-7.18-1.01-1.93-.67-3.47-1.62-4.62-2.85-1.15-1.23-1.97-2.73-2.48-4.49-.5-1.76-.76-3.71-.76-5.84v-47.94h10.33v44.83c0,1.29.1,2.39.29,3.32.19.92.53,1.67,1.01,2.22.47.56,1.17.98,2.1,1.26.92.28,2.14.42,3.65.42h3.19v10.07h-5.54Zm3.02-5.12c0-3.3.84-4.95,2.52-4.95h.84v10.07h-.84c-1.68,0-2.52-1.71-2.52-5.12h0Zm2.52,5.12v-10.07h.42c.89,0,1.69-.14,2.39-.42.7-.28,1.38-.78,2.06-1.51.67-.73,1.43-1.72,2.27-2.98.84-1.26,1.85-2.9,3.02-4.91,1.68-2.8,3.29-5.18,4.83-7.14,1.54-1.96,3.05-3.51,4.53-4.66,1.48-1.15,2.97-1.99,4.45-2.52,1.48-.53,3.01-.8,4.58-.8,2.29,0,4.37.53,6.21,1.6,1.85,1.06,3.57,2.8,5.16,5.21,1.6,2.41,3.2,5.71,4.83,9.91.95,2.52,1.86,4.37,2.73,5.54.87,1.18,1.81,1.92,2.81,2.22,1.01.31,2.24.46,3.69.46h.42v10.07h-1.51c-2.46,0-4.59-.32-6.38-.97-1.79-.64-3.36-1.59-4.7-2.85-1.34-1.26-2.49-2.71-3.44-4.36-.95-1.65-1.79-3.49-2.52-5.5-1.12-2.97-2.11-5.25-2.98-6.84-.87-1.6-1.69-2.7-2.48-3.32-.79-.62-1.62-.92-2.52-.92-.79,0-1.67.31-2.65.92-.98.62-2.06,1.64-3.23,3.07-1.17,1.43-2.49,3.37-3.95,5.84-1.46,2.46-2.76,4.56-3.9,6.3-1.15,1.74-2.21,3.16-3.19,4.28-.98,1.12-1.97,2-2.98,2.64-1.01.64-2.11,1.09-3.32,1.34-1.2.25-2.59.38-4.16.38h-.5Zm44.83-3.86c-1.74,2.07-3.74,3.51-6,4.32-2.27.81-4.67,1.16-7.22,1.05-2.55-.11-5.08-.63-7.6-1.55-2.52-.93-4.87-2.13-7.05-3.61-2.18-1.48-4.09-3.09-5.71-4.83l5.46-6.21c1.23,1.01,2.73,1.99,4.49,2.94,1.76.95,3.69,1.74,5.79,2.35,2.1.62,4.31.98,6.63,1.09,2.32.11,4.66-.17,7.01-.84l4.2,5.29Zm7.05-1.26c0-3.3.84-4.95,2.52-4.95h.84v10.07h-.84c-1.68,0-2.52-1.71-2.52-5.12h0Zm2.52,5.12v-10.07h9.74v-52.05h10.33v62.13h-20.07Zm17.55-10.07h10.07v10.07h-10.07v-10.07Zm7.56,4.95c0-3.3.84-4.95,2.52-4.95h.84v10.07h-.84c-1.68,0-2.52-1.71-2.52-5.12h0Zm2.52,5.12v-10.07h10.16c.5-1.12.97-2.49,1.38-4.11.42-1.62.78-3.34,1.09-5.16.31-1.82.46-3.57.46-5.25l12.09-4.2c-.67,3.25-1.37,6.16-2.1,8.73-.73,2.57-1.55,4.95-2.48,7.14-.92,2.18-1.97,4.31-3.15,6.38-1.17,2.07-2.55,4.25-4.11,6.55h-13.35Zm28.04,0c-3.41,0-6.38-.31-8.9-.92-2.52-.62-4.65-1.39-6.38-2.31-1.74-.92-3.22-1.81-4.45-2.64l4.79-7.05c1.51.9,3.32,1.59,5.42,2.1,2.1.5,4.38.76,6.84.76h7.89c.5-1.01.97-2.32,1.38-3.95.42-1.62.78-3.37,1.09-5.25.31-1.88.46-3.65.46-5.33l12.17-4.2c-.73,3.25-1.46,6.16-2.18,8.73-.73,2.57-1.55,4.95-2.48,7.14-.92,2.18-1.97,4.31-3.15,6.38-1.18,2.07-2.52,4.25-4.03,6.55h-8.48Zm28.21,0c-3.3,0-6.17-.31-8.61-.92-2.44-.62-4.53-1.39-6.3-2.31-1.76-.92-3.34-1.86-4.74-2.81l5.54-6.46c1.4.73,3.09,1.32,5.08,1.76,1.99.45,4.16.67,6.51.67h10.66c-.22-3.41-.94-6.58-2.14-9.49-1.2-2.91-2.7-5.88-4.49-8.9l9.15-9.23c1.23,2.57,2.36,5.25,3.4,8.02,1.03,2.77,1.82,5.68,2.35,8.73.53,3.05.67,6.31.42,9.78-.25,3.47-1.11,7.19-2.56,11.17h-14.27Zm74.3,20.06c-4.48,0-8.3-.6-11.46-1.81-3.16-1.2-5.74-2.81-7.72-4.83-1.99-2.01-3.46-4.34-4.41-6.97-.95-2.63-1.43-5.37-1.43-8.23,0-1.85.31-4.2.92-7.05.62-2.85,1.57-5.99,2.85-9.4l8.65,2.85c-.84,2.35-1.46,4.53-1.85,6.55-.39,2.01-.59,3.81-.59,5.37,0,2.18.36,4.11,1.09,5.79.73,1.68,1.8,3.08,3.23,4.2,1.43,1.12,3.16,1.96,5.2,2.52,2.04.56,4.35.84,6.93.84,1.96,0,3.9-.26,5.84-.8,1.93-.53,3.65-1.3,5.16-2.31,1.51-1.01,2.73-2.27,3.65-3.78s1.38-3.25,1.38-5.21c0-1.62-.17-3.22-.5-4.78-.34-1.57-1.06-3.53-2.18-5.88l8.14-1.85c.45.62.97,1.5,1.55,2.64.59,1.15,1.12,2.38,1.59,3.69.48,1.32.71,2.59.71,3.82,0,4.98-1.09,9.32-3.28,13.01-2.18,3.69-5.28,6.55-9.28,8.56-4,2.01-8.75,3.02-14.23,3.02Zm.42-49.62l-7.56-7.56,7.14-7.64,7.47,7.64-7.05,7.56Zm34.34,29.55c-2.24,0-4.37-.32-6.38-.97-2.01-.64-3.85-1.5-5.5-2.56-1.65-1.06-3.08-2.22-4.28-3.49-1.2-1.26-2.11-2.5-2.73-3.74l-4.87-9.4,8.06-9.66,5.71,12.93c.78,1.68,1.57,3.02,2.35,4.03.78,1.01,1.76,1.72,2.94,2.14,1.17.42,2.66.63,4.45.63h1.09v10.07h-.84Zm-1.68-5.12c0-3.3.84-4.95,2.52-4.95h.84v10.07h-.84c-1.68,0-2.52-1.71-2.52-5.12h0Zm2.52,5.12v-10.07h14.94c-.17-3.19-.84-6.25-2.01-9.19-1.17-2.94-2.74-5.97-4.7-9.11l9.15-9.24c1.62,3.41,3.06,7.02,4.32,10.83s1.94,7.91,2.06,12.3c.11,4.39-.76,9.22-2.6,14.48h-21.16Zm13.6,21.16l-7.56-7.64,7.14-7.56,7.47,7.56-7.05,7.64Zm69.77-1.85c-4.09,0-7.81-.44-11.17-1.3-3.36-.87-6.23-2.2-8.61-3.99-2.38-1.79-4.23-4.04-5.54-6.76-1.32-2.71-1.97-5.89-1.97-9.53,0-1.85.29-4.22.88-7.13.59-2.91,1.58-6.02,2.98-9.32l8.73,2.85c-.79,2.24-1.39,4.34-1.81,6.3-.42,1.96-.63,3.75-.63,5.37,0,2.18.39,4.11,1.18,5.79.78,1.68,1.94,3.08,3.48,4.2,1.54,1.12,3.46,1.97,5.75,2.56,2.29.59,4.95.88,7.98.88,3.86,0,7.16-.32,9.91-.97,2.74-.64,4.98-1.44,6.72-2.39,1.73-.95,2.99-1.96,3.78-3.02.78-1.06,1.17-2.01,1.17-2.85,0-.73-.27-1.44-.8-2.14s-1.51-1.44-2.94-2.22c-1.43-.78-3.46-1.71-6.09-2.77l4.53-8.81c3.13,1.85,5.65,3.39,7.56,4.62,1.9,1.23,3.36,2.32,4.37,3.28,1.01.95,1.69,1.86,2.06,2.73.36.87.55,1.86.55,2.98,0,1.85-.35,3.78-1.05,5.79-.7,2.01-1.81,3.96-3.32,5.84-1.51,1.88-3.51,3.57-6,5.08-2.49,1.51-5.51,2.71-9.07,3.61-3.56.9-7.77,1.34-12.64,1.34Zm38.37-19.31c-1.01,0-2.3-.14-3.86-.42-1.57-.28-3.25-.7-5.04-1.26-1.79-.56-3.6-1.24-5.42-2.06-1.82-.81-3.48-1.75-5-2.81l-1.51-9.4c2.52,1.23,4.77,2.24,6.76,3.02,1.99.78,3.79,1.37,5.42,1.76,1.62.39,3.11.67,4.45.84,1.34.17,2.6.25,3.78.25h.67v10.07h-.25Zm-2.27-5.12c0-3.3.84-4.95,2.52-4.95h.84v10.07h-.84c-1.68,0-2.52-1.71-2.52-5.12h0Zm2.52,5.12v-10.07h10.16c.5-1.12.92-2.49,1.26-4.11.34-1.62.6-3.34.8-5.16.19-1.82.32-3.57.38-5.25l12.09-4.2c-.67,3.25-1.34,6.16-2.01,8.73-.67,2.57-1.44,4.95-2.31,7.14-.87,2.18-1.86,4.31-2.98,6.38-1.12,2.07-2.46,4.25-4.03,6.55h-13.35Zm28.04,0c-3.41,0-6.38-.31-8.9-.92-2.52-.62-4.65-1.39-6.38-2.31-1.74-.92-3.22-1.78-4.45-2.56l4.79-7.13c1.51.9,3.32,1.59,5.42,2.1,2.1.5,4.38.76,6.84.76h7.89c.5-1.01.92-2.32,1.26-3.95.34-1.62.61-3.37.84-5.25.22-1.88.34-3.65.34-5.33l12.09-4.2c-.67,3.25-1.34,6.16-2.01,8.73-.67,2.57-1.44,4.95-2.31,7.14-.87,2.18-1.86,4.31-2.98,6.38-1.12,2.07-2.43,4.25-3.95,6.55h-8.48Zm28.04,0c-3.3,0-6.17-.31-8.61-.92-2.43-.62-4.55-1.39-6.34-2.31s-3.39-1.86-4.79-2.81l5.46-6.55c3.08,1.68,7,2.52,11.75,2.52h10.66c-.39-2.07-.8-3.89-1.22-5.46s-.91-3.18-1.47-4.83c-.56-1.65-1.29-3.51-2.18-5.58l11.59-7.81c.5,3.47.92,7.04,1.26,10.7.34,3.67.39,7.42.17,11.25-.22,3.83-.92,7.77-2.1,11.8h-14.19Zm24.43,0c-2.58,0-4.88-.21-6.93-.63-2.04-.42-3.88-.95-5.5-1.6-1.62-.64-3.08-1.33-4.37-2.06l3.95-7.72c.73.34,1.5.62,2.31.84.81.22,1.65.42,2.52.59.87.17,1.78.29,2.73.38.95.08,1.93.13,2.94.13h3.02v10.07h-.67Zm-1.85-5.12c0-3.3.84-4.95,2.52-4.95h.84v10.07h-.84c-1.68,0-2.52-1.71-2.52-5.12h0Zm2.52,5.12v-10.07h10.75c.34-.9.7-2.22,1.09-3.99.39-1.76.74-3.62,1.05-5.58.31-1.96.49-3.69.55-5.21l12.01-4.2c-.84,3.92-1.73,7.51-2.69,10.79-.95,3.27-2.07,6.38-3.36,9.32-1.29,2.94-2.94,5.92-4.95,8.94h-14.44Zm8.48,21.16l-7.47-7.64,7.14-7.56,7.47,7.56-7.14,7.64Zm23.01-21.16c-3.3,0-6.17-.31-8.61-.92-2.44-.62-4.55-1.39-6.34-2.31-1.79-.92-3.39-1.86-4.79-2.81l5.46-6.55c1.01.5,2.13.95,3.36,1.34,1.23.39,2.55.69,3.95.88,1.4.2,2.88.29,4.45.29h3.02v10.07h-.5Zm-8.4,21.16l-7.47-7.64,7.05-7.56,7.47,7.56-7.05,7.64Zm6.38-26.28c0-3.3.84-4.95,2.52-4.95h.84v10.07h-.84c-1.68,0-2.52-1.71-2.52-5.12h0Zm2.52,5.12v-10.07h10.75c-1.06-1.29-1.92-2.78-2.56-4.49-.65-1.7-.97-3.62-.97-5.75,0-3.47.84-6.51,2.52-9.11,1.68-2.6,3.99-4.63,6.93-6.09,2.94-1.45,6.37-2.18,10.28-2.18,2.52,0,5,.31,7.43.92,2.43.62,4.66,1.46,6.67,2.52l-4.37,8.73c-1.62-.72-3.23-1.26-4.83-1.59-1.6-.34-3.23-.5-4.91-.5-3.02,0-5.34.73-6.97,2.18-1.62,1.46-2.43,3.33-2.43,5.63,0,1.68.49,3.26,1.47,4.74.98,1.48,2.57,2.69,4.79,3.61,2.21.92,5.11,1.39,8.69,1.39h9.23v10.07h-41.73Zm95.71,0c-4.93,0-9.05-.68-12.38-2.06-3.33-1.37-5.85-3.33-7.56-5.88-1.71-2.55-2.56-5.61-2.56-9.19,0-2.46.42-5.22,1.26-8.27.84-3.05,2.3-6.39,4.37-10.03l7.81,3.53c-1.17,2.74-1.99,5.07-2.43,6.97-.45,1.9-.67,3.64-.67,5.21,0,2.52.61,4.48,1.85,5.88,1.23,1.4,2.94,2.38,5.12,2.94,2.18.56,4.67.84,7.47.84h31.06l-9.74,10.07h-23.59Zm16.29-5.12c0-3.3.84-4.95,2.52-4.95h.84v10.07h-.84c-1.68,0-2.52-1.71-2.52-5.12h0Zm2.52,5.12v-10.07h7.72c.5,0,.97.01,1.39.04.42.03.85.06,1.3.08.45.03.89.07,1.34.13-1.57-1.62-2.72-3.36-3.44-5.2-.73-1.85-1.09-3.83-1.09-5.96,0-2.35.45-4.56,1.34-6.63.89-2.07,2.14-3.89,3.74-5.46,1.6-1.57,3.51-2.8,5.75-3.69,2.24-.9,4.7-1.34,7.39-1.34s5.14.45,7.35,1.34c2.21.9,4.11,2.14,5.71,3.74,1.6,1.6,2.84,3.41,3.74,5.46.89,2.04,1.34,4.24,1.34,6.59,0,1.85-.31,3.72-.92,5.63-.62,1.9-1.73,3.75-3.36,5.54.22-.05.53-.1.92-.13.39-.03.73-.07,1.01-.13h7.89v10.07h-4.03c-3.19,0-5.93-.05-8.23-.17-2.3-.11-4.32-.32-6.09-.63-1.76-.31-3.46-.77-5.08-1.39-1.12.39-2.3.71-3.53.97-1.23.25-2.53.48-3.9.67-1.37.2-2.88.34-4.53.42-1.65.08-3.54.13-5.67.13h-8.06Zm25.1-46.43l-7.56-7.56,7.14-7.64,7.47,7.64-7.05,7.56Zm.5,36.52c1.45-.73,2.74-1.6,3.86-2.6,1.12-1.01,2-2.15,2.64-3.44.64-1.29.97-2.77.97-4.45,0-1.4-.34-2.67-1.01-3.82-.67-1.15-1.58-2.06-2.73-2.73-1.15-.67-2.45-1.01-3.9-1.01s-2.84.34-3.99,1.01c-1.15.67-2.06,1.58-2.73,2.73-.67,1.15-1.01,2.42-1.01,3.82,0,1.9.38,3.54,1.13,4.91.76,1.37,1.75,2.5,2.98,3.4,1.23.9,2.49,1.62,3.78,2.18Zm20.99,4.78c0-3.3.84-4.95,2.52-4.95h.84v10.07h-.84c-1.68,0-2.52-1.71-2.52-5.12h0Zm2.52,5.12v-10.07h32.16c.11-1.23.19-2.3.25-3.19.05-.89.1-1.83.13-2.81.03-.98.04-2.14.04-3.48,0-2.07-.17-4.14-.5-6.21-.34-2.07-.87-3.97-1.6-5.71-.73-1.73-1.65-3.13-2.77-4.2-1.12-1.06-2.49-1.6-4.11-1.6-1.46,0-2.74.42-3.86,1.26-1.12.84-1.99,1.88-2.6,3.11-.62,1.23-.92,2.49-.92,3.78,0,1.06.28,1.99.84,2.77.56.78,1.44,1.39,2.64,1.81,1.2.42,2.81.63,4.83.63,1.46,0,2.9-.1,4.32-.29,1.43-.19,2.84-.49,4.24-.88l5.37,6.46c-2.18,1.34-4.65,2.37-7.39,3.06-2.74.7-5.46,1.05-8.14,1.05s-5.22-.32-7.26-.97c-2.04-.64-3.76-1.52-5.16-2.64-1.4-1.12-2.44-2.46-3.11-4.03-.67-1.57-1.01-3.33-1.01-5.29,0-2.91.49-5.57,1.47-7.98.98-2.4,2.31-4.5,3.99-6.3,1.68-1.79,3.58-3.18,5.71-4.16,2.13-.98,4.34-1.47,6.63-1.47,3.47,0,6.56.99,9.28,2.98,2.71,1.99,4.83,4.8,6.34,8.44,1.51,3.64,2.27,8,2.27,13.1,0,2.18-.11,4.67-.34,7.47-.22,2.8-.52,5.56-.88,8.27-.36,2.71-.77,5.08-1.22,7.09h-39.63Zm17.04-55.66l-7.47-7.56,7.14-7.64,7.47,7.64-7.14,7.56Zm14.61,0l-7.47-7.56,7.05-7.64,7.47,7.64-7.05,7.56Zm38.37,21.07c2.52,0,4.85.6,7.01,1.81,2.15,1.21,4.02,2.94,5.58,5.21,1.57,2.27,2.78,5.02,3.65,8.27.87,3.25,1.3,6.91,1.3,11,0,2.41-.28,4.9-.84,7.47-.56,2.57-1.44,5.06-2.65,7.47-1.2,2.4-2.73,4.56-4.58,6.46-1.85,1.9-4.07,3.41-6.67,4.53-2.6,1.12-5.58,1.68-8.94,1.68-2.58,0-5.29-.45-8.14-1.34-2.85-.9-5.54-2.38-8.06-4.45l3.53-6.88c1.73.62,3.6,1.18,5.58,1.68,1.99.5,3.9.75,5.75.75,2.35,0,4.55-.39,6.59-1.18,2.04-.78,3.83-1.97,5.37-3.57,1.54-1.6,2.67-3.65,3.4-6.17-1.51.39-3.01.69-4.49.88-1.48.2-2.87.29-4.16.29-2.97,0-5.5-.35-7.6-1.05-2.1-.7-3.83-1.65-5.21-2.85-1.37-1.2-2.36-2.63-2.98-4.28-.62-1.65-.92-3.43-.92-5.33,0-2.85.46-5.51,1.38-7.98.92-2.46,2.18-4.63,3.78-6.51,1.6-1.87,3.46-3.33,5.58-4.36,2.13-1.03,4.37-1.55,6.72-1.55Zm-8.06,18.39c0,1.12.28,2.09.84,2.9.56.81,1.44,1.46,2.65,1.93,1.2.48,2.81.71,4.83.71,1.4,0,2.76-.11,4.07-.34,1.31-.22,2.59-.53,3.82-.92-.22-2.01-.7-3.99-1.43-5.92-.73-1.93-1.71-3.53-2.94-4.79-1.23-1.26-2.72-1.89-4.45-1.89-1.4,0-2.66.41-3.78,1.22-1.12.81-2,1.86-2.64,3.15-.64,1.29-.97,2.6-.97,3.95Z"/>
        <path class="cls-1" d="m410.76,245.3c-4.09,0-7.81-.44-11.17-1.3-3.36-.87-6.23-2.2-8.61-3.99-2.38-1.79-4.23-4.04-5.54-6.76-1.32-2.71-1.97-5.89-1.97-9.53,0-1.85.29-4.22.88-7.13.59-2.91,1.58-6.02,2.98-9.32l8.73,2.85c-.79,2.24-1.39,4.34-1.81,6.3-.42,1.96-.63,3.75-.63,5.37,0,2.18.39,4.11,1.18,5.79.78,1.68,1.94,3.08,3.48,4.2,1.54,1.12,3.46,1.97,5.75,2.56,2.29.59,4.95.88,7.98.88,3.75,0,6.97-.31,9.66-.92,2.69-.62,4.88-1.4,6.59-2.35,1.71-.95,2.97-1.92,3.78-2.9.81-.98,1.22-1.86,1.22-2.64,0-.73-.36-1.43-1.09-2.1-.73-.67-1.88-1.43-3.44-2.27-1.57-.84-3.61-1.82-6.13-2.94-2.07-1.01-3.92-2.1-5.54-3.28-1.62-1.18-2.91-2.53-3.86-4.07-.95-1.54-1.43-3.37-1.43-5.5,0-3.58.85-6.74,2.56-9.49,1.71-2.74,4.04-4.88,7.01-6.42,2.97-1.54,6.38-2.31,10.24-2.31,1.68,0,3.37.15,5.08.46,1.71.31,3.33.75,4.87,1.34,1.54.59,2.95,1.33,4.24,2.22l-4.87,8.48c-1.34-.78-2.77-1.37-4.28-1.76-1.51-.39-3.19-.59-5.04-.59-2.91,0-5.19.66-6.84,1.97-1.65,1.32-2.48,2.84-2.48,4.57,0,1.23.43,2.32,1.3,3.28.87.95,2.11,1.86,3.74,2.73,1.62.87,3.58,1.81,5.88,2.81,2.29.95,4.16,1.9,5.58,2.85,1.43.95,2.46,1.99,3.11,3.11.64,1.12.97,2.46.97,4.03,0,1.68-.34,3.51-1.01,5.5-.67,1.99-1.75,3.93-3.23,5.84-1.48,1.9-3.47,3.65-5.96,5.25-2.49,1.59-5.53,2.85-9.11,3.78-3.58.92-7.84,1.39-12.76,1.39Zm-7.05,21.16l-7.47-7.64,7.14-7.56,7.47,7.56-7.14,7.64Zm14.61,0l-7.47-7.64,7.05-7.56,7.47,7.56-7.05,7.64Zm39.37-20.4c-2.41,0-5.04-.48-7.89-1.43-2.85-.95-5.51-2.41-7.98-4.36l3.53-6.8c1.9.73,3.78,1.32,5.63,1.76,1.85.45,3.5.67,4.95.67,3.25,0,6.1-.69,8.56-2.06,2.46-1.37,4.39-3.26,5.79-5.67,1.4-2.41,2.1-5.15,2.1-8.23,0-1.45-.21-2.73-.63-3.82-.42-1.09-.98-2.15-1.68-3.19-.7-1.03-1.47-2.17-2.31-3.4l13.85,7.05v3.36c0,2.13-.31,4.39-.92,6.8-.62,2.4-1.53,4.74-2.73,7.01-1.2,2.27-2.76,4.32-4.66,6.17-1.9,1.85-4.14,3.33-6.72,4.45-2.58,1.12-5.54,1.68-8.9,1.68Zm31.82-20.06c-1.96,0-3.74-.2-5.33-.59-1.59-.39-3.11-1.01-4.53-1.85-1.43-.84-2.77-1.93-4.03-3.28-1.26-1.34-2.5-2.97-3.74-4.87l-10.41-15.28,7.72-9.57,11.08,18.89c.95,1.62,1.82,2.91,2.6,3.86.78.95,1.68,1.63,2.69,2.01,1.01.39,2.32.59,3.95.59h.84v10.07h-.84Zm-1.68-5.12c0-3.3.84-4.95,2.52-4.95h.84v10.07h-.84c-1.68,0-2.52-1.71-2.52-5.12h0Zm2.52,5.12v-10.07h10.75c.34-.9.7-2.22,1.09-3.99.39-1.76.74-3.62,1.05-5.58.31-1.96.49-3.69.55-5.21l12.01-4.2c-.84,3.92-1.73,7.51-2.69,10.79-.95,3.27-2.07,6.38-3.36,9.32s-2.94,5.92-4.95,8.94h-14.44Zm8.48,21.16l-7.47-7.64,7.14-7.56,7.47,7.56-7.14,7.64Zm23.01-21.16c-3.3,0-6.17-.31-8.61-.92-2.44-.62-4.55-1.39-6.34-2.31-1.79-.92-3.39-1.86-4.79-2.81l5.46-6.55c1.01.5,2.13.95,3.36,1.34,1.23.39,2.55.69,3.95.88,1.4.2,2.88.29,4.45.29h3.02v10.07h-.5Zm-8.4,21.16l-7.47-7.64,7.05-7.56,7.47,7.56-7.05,7.64Zm6.38-26.28c0-3.3.84-4.95,2.52-4.95h.84v10.07h-.84c-1.68,0-2.52-1.71-2.52-5.12h0Zm0,0c0-3.3.84-4.95,2.52-4.95h.84v10.07h-.84c-1.68,0-2.52-1.71-2.52-5.12h0Zm2.52,5.12v-10.07h2.27c5.2,0,9.64-.17,13.31-.5,3.67-.34,6.8-.81,9.4-1.43,2.6-.62,4.9-1.36,6.88-2.22,1.99-.87,3.9-1.81,5.75-2.81.5-.28.98-.55,1.43-.8.45-.25.91-.49,1.38-.71.48-.22.91-.45,1.3-.67-2.07-.84-4.09-1.73-6.04-2.69-1.96-.95-3.85-1.85-5.67-2.69-1.82-.84-3.6-1.52-5.33-2.06-1.73-.53-3.44-.8-5.12-.8s-3.39.45-5.12,1.34c-1.74.9-3.41,2.71-5.04,5.46l-6.88-3.53c1.62-3.36,3.43-6.02,5.42-7.98,1.99-1.96,4.08-3.37,6.3-4.24,2.21-.87,4.46-1.3,6.76-1.3,2.8,0,5.44.47,7.93,1.43,2.49.95,4.91,2.13,7.26,3.53,2.35,1.4,4.65,2.79,6.88,4.16,2.24,1.37,4.48,2.53,6.72,3.49,2.24.95,4.51,1.43,6.8,1.43l-.08,8.81c-1.51.17-3.42.74-5.71,1.72-2.3.98-4.93,2.25-7.89,3.82-2.01,1.06-4.2,2.14-6.55,3.23-2.35,1.09-5.09,2.1-8.23,3.02-3.14.92-6.86,1.66-11.17,2.22-4.31.56-9.4.84-15.28.84h-1.68Zm21.16-46.01l-7.56-7.56,7.14-7.64,7.47,7.64-7.05,7.56Zm39.88,46.01c-3.53,0-6.48-.38-8.86-1.13-2.38-.76-4.31-1.93-5.79-3.53-1.48-1.6-2.73-3.68-3.74-6.25l6.97-3.28c.62.95,1.37,1.73,2.27,2.35.89.62,2.08,1.06,3.57,1.34,1.48.28,3.34.42,5.58.42h2.85v10.07h-2.85Zm.34-5.12c0-3.3.84-4.95,2.52-4.95h.84v10.07h-.84c-1.68,0-2.52-1.71-2.52-5.12h0Zm2.52,5.12v-10.07h9.74v-52.05h10.33v62.13h-20.07Zm32.83-62.13h10.33v62.13h-10.33v-62.13Zm70.86,81.44c-4.09,0-7.81-.44-11.17-1.3-3.36-.87-6.23-2.2-8.61-3.99-2.38-1.79-4.23-4.04-5.54-6.76-1.32-2.71-1.97-5.89-1.97-9.53,0-1.85.29-4.22.88-7.13.59-2.91,1.58-6.02,2.98-9.32l8.73,2.85c-.79,2.24-1.39,4.34-1.81,6.3-.42,1.96-.63,3.75-.63,5.37,0,2.18.39,4.11,1.18,5.79.78,1.68,1.94,3.08,3.48,4.2,1.54,1.12,3.46,1.97,5.75,2.56,2.29.59,4.95.88,7.98.88,3.86,0,7.16-.32,9.91-.97,2.74-.64,4.98-1.44,6.72-2.39,1.73-.95,2.99-1.96,3.78-3.02.78-1.06,1.17-2.01,1.17-2.85,0-.73-.27-1.44-.8-2.14-.53-.7-1.51-1.44-2.94-2.22-1.43-.78-3.46-1.71-6.09-2.77l4.53-8.81c3.13,1.85,5.65,3.39,7.56,4.62,1.9,1.23,3.36,2.32,4.37,3.28,1.01.95,1.69,1.86,2.06,2.73.36.87.55,1.86.55,2.98,0,1.85-.35,3.78-1.05,5.79-.7,2.01-1.81,3.96-3.32,5.84-1.51,1.88-3.51,3.57-6,5.08-2.49,1.51-5.51,2.71-9.07,3.61-3.56.9-7.77,1.34-12.64,1.34Zm-7.05,21.16l-7.47-7.64,7.14-7.56,7.47,7.56-7.14,7.64Zm14.61,0l-7.47-7.64,7.05-7.56,7.47,7.56-7.05,7.64Zm30.81-40.47c-1.01,0-2.3-.14-3.86-.42-1.57-.28-3.25-.7-5.04-1.26-1.79-.56-3.6-1.24-5.42-2.06-1.82-.81-3.48-1.75-5-2.81l-1.51-9.4c2.52,1.23,4.77,2.24,6.76,3.02,1.99.78,3.79,1.37,5.42,1.76,1.62.39,3.11.67,4.45.84,1.34.17,2.6.25,3.78.25h.67v10.07h-.25Zm-2.27-5.12c0-3.3.84-4.95,2.52-4.95h.84v10.07h-.84c-1.68,0-2.52-1.71-2.52-5.12h0Zm2.52,5.12v-10.07h.42c.89,0,1.69-.14,2.39-.42.7-.28,1.38-.78,2.06-1.51.67-.73,1.43-1.72,2.27-2.98.84-1.26,1.85-2.9,3.02-4.91,1.68-2.8,3.29-5.18,4.83-7.14,1.54-1.96,3.05-3.51,4.53-4.66,1.48-1.15,2.97-1.99,4.45-2.52,1.48-.53,3.01-.8,4.58-.8,2.29,0,4.37.53,6.21,1.6,1.85,1.06,3.57,2.8,5.16,5.21,1.6,2.41,3.2,5.71,4.83,9.91.95,2.52,1.86,4.37,2.73,5.54.87,1.18,1.81,1.92,2.81,2.22,1.01.31,2.24.46,3.69.46h.42v10.07h-1.51c-2.46,0-4.59-.32-6.38-.97-1.79-.64-3.36-1.59-4.7-2.85-1.34-1.26-2.49-2.71-3.44-4.36-.95-1.65-1.79-3.49-2.52-5.5-1.12-2.97-2.11-5.25-2.98-6.84-.87-1.6-1.69-2.7-2.48-3.32-.79-.62-1.62-.92-2.52-.92-.79,0-1.67.31-2.65.92-.98.62-2.06,1.64-3.23,3.07-1.17,1.43-2.49,3.37-3.95,5.84-1.46,2.46-2.76,4.56-3.9,6.3-1.15,1.74-2.21,3.16-3.19,4.28-.98,1.12-1.97,2-2.98,2.64s-2.11,1.09-3.32,1.34c-1.2.25-2.59.38-4.16.38h-.5Zm44.83-3.86c-1.74,2.07-3.74,3.51-6,4.32-2.27.81-4.67,1.16-7.22,1.05-2.55-.11-5.08-.63-7.6-1.55-2.52-.93-4.87-2.13-7.05-3.61-2.18-1.48-4.09-3.09-5.71-4.83l5.46-6.21c1.23,1.01,2.73,1.99,4.49,2.94,1.76.95,3.69,1.74,5.79,2.35,2.1.62,4.31.98,6.63,1.09,2.32.11,4.66-.17,7.01-.84l4.2,5.29Zm7.05-1.26c0-3.3.84-4.95,2.52-4.95h.84v10.07h-.84c-1.68,0-2.52-1.71-2.52-5.12h0Zm2.52-4.95h6.72v10.07h-6.72v-10.07Zm4.2,4.95c0-3.3.84-4.95,2.52-4.95h.84v10.07h-.84c-1.68,0-2.52-1.71-2.52-5.12h0Zm2.52,5.12v-10.07h10.75c.34-.9.7-2.22,1.09-3.99.39-1.76.74-3.62,1.05-5.58.31-1.96.49-3.69.55-5.21l12.01-4.2c-.84,3.92-1.73,7.51-2.69,10.79-.95,3.27-2.07,6.38-3.36,9.32-1.29,2.94-2.94,5.92-4.95,8.94h-14.44Zm8.48,21.16l-7.47-7.64,7.14-7.56,7.47,7.56-7.14,7.64Zm23.01-21.16c-3.3,0-6.17-.31-8.61-.92-2.44-.62-4.55-1.39-6.34-2.31-1.79-.92-3.39-1.86-4.79-2.81l5.46-6.55c1.01.5,2.13.95,3.36,1.34,1.23.39,2.55.69,3.95.88,1.4.2,2.88.29,4.45.29h3.02v10.07h-.5Zm-8.4,21.16l-7.47-7.64,7.05-7.56,7.47,7.56-7.05,7.64Zm6.38-26.28c0-3.3.84-4.95,2.52-4.95h.84v10.07h-.84c-1.68,0-2.52-1.71-2.52-5.12h0Zm2.52-4.95h6.72v10.07h-6.72v-10.07Zm4.2,4.95c0-3.3.84-4.95,2.52-4.95h.84v10.07h-.84c-1.68,0-2.52-1.71-2.52-5.12h0Zm2.52,5.12v-10.07h9.74v-52.05h10.33v62.13h-20.07Zm17.55-10.07h10.07v10.07h-10.07v-10.07Zm7.56,4.95c0-3.3.84-4.95,2.52-4.95h.84v10.07h-.84c-1.68,0-2.52-1.71-2.52-5.12h0Zm2.52-4.95h6.72v10.07h-6.72v-10.07Zm4.2,4.95c0-3.3.84-4.95,2.52-4.95h.84v10.07h-.84c-1.68,0-2.52-1.71-2.52-5.12h0Zm2.52,5.12v-10.07h8.73c1.57,0,2.98-.07,4.24-.21,1.26-.14,2.48-.32,3.65-.55,1.18-.22,2.41-.5,3.69-.84l6.88,7.72c-3.02,1.23-6.41,2.2-10.16,2.9-3.75.7-7.67,1.05-11.75,1.05h-5.29Zm46.51,0c-2.8,0-5.32-.08-7.56-.25-2.24-.17-4.31-.46-6.21-.88-1.9-.42-3.71-1.02-5.42-1.81-1.71-.78-3.4-1.81-5.08-3.07-1.68-1.26-3.44-2.81-5.29-4.66l-9.74-9.66v-13.01c1.79-.84,3.78-1.58,5.96-2.22,2.18-.64,4.42-1.16,6.72-1.55,2.3-.39,4.51-.59,6.63-.59,3.64,0,6.8.42,9.49,1.26,2.69.84,4.77,2.17,6.25,3.99,1.48,1.82,2.22,4.18,2.22,7.09,0,1.85-.34,3.68-1.01,5.5-.67,1.82-1.57,3.53-2.69,5.12-1.12,1.59-2.38,3.04-3.78,4.32.73.11,1.48.2,2.27.25.78.06,1.59.08,2.43.08h8.4v10.07h-3.61Zm-19.56-13.52c1.57-1.01,2.88-2.07,3.95-3.19,1.06-1.12,1.87-2.24,2.43-3.36s.84-2.18.84-3.19c0-.84-.25-1.58-.76-2.22-.5-.64-1.3-1.16-2.39-1.55-1.09-.39-2.59-.59-4.49-.59s-3.89.15-5.96.46c-2.07.31-3.95.74-5.63,1.3l8.48,8.82c.67.67,1.3,1.32,1.89,1.93.59.62,1.13,1.15,1.64,1.6Zm20.65,8.39c0-3.3.84-4.95,2.52-4.95h.84v10.07h-.84c-1.68,0-2.52-1.71-2.52-5.12h0Zm2.52-4.95h6.72v10.07h-6.72v-10.07Zm4.2,4.95c0-3.3.84-4.95,2.52-4.95h.84v10.07h-.84c-1.68,0-2.52-1.71-2.52-5.12h0Zm2.52,5.12v-10.07h10.75c.34-.9.7-2.22,1.09-3.99.39-1.76.74-3.62,1.05-5.58.31-1.96.49-3.69.55-5.21l12.01-4.2c-.84,3.92-1.73,7.51-2.69,10.79-.95,3.27-2.07,6.38-3.36,9.32-1.29,2.94-2.94,5.92-4.95,8.94h-14.44Zm12.43-37.7l-7.47-7.56,7.14-7.64,7.47,7.64-7.14,7.56Zm19.06,37.7c-3.3,0-6.17-.31-8.61-.92-2.44-.62-4.55-1.39-6.34-2.31-1.79-.92-3.39-1.86-4.79-2.81l5.46-6.55c1.01.5,2.13.95,3.36,1.34,1.23.39,2.55.69,3.95.88,1.4.2,2.88.29,4.45.29h3.02v10.07h-.5Zm-4.45-37.7l-7.47-7.56,7.05-7.64,7.47,7.64-7.05,7.56Zm2.44,32.57c0-3.3.84-4.95,2.52-4.95h.84v10.07h-.84c-1.68,0-2.52-1.71-2.52-5.12h0Zm2.52-4.95h6.72v10.07h-6.72v-10.07Zm4.2,4.95c0-3.3.84-4.95,2.52-4.95h.84v10.07h-.84c-1.68,0-2.52-1.71-2.52-5.12h0Zm2.52,5.12v-10.07h9.74v-52.05h10.33v62.13h-20.07Zm32.83-62.13h10.33v62.13h-10.33v-62.13Z"/>
      </g>
      <rect class="cls-1" x="1098.09" y="13.04" width="12.7" height="507.32"/>
      <path class="cls-1" d="m1323.29,16.06h-29.13v-3.45h14.97v-2.23c0-3.91,3.17-7.08,7.08-7.08s7.08,3.17,7.08,7.08v5.68Z"/>
      <rect class="cls-1" x="1461.81" y="50.95" width="31.41" height="3.01" transform="translate(6.33 198.77) rotate(-7.71)"/>
      <rect class="cls-1" x="1443.89" y="404.26" width="31.41" height="3.01" transform="translate(-41.25 199.56) rotate(-7.71)"/>
      <rect class="cls-1" x="1309.99" y="404.26" width="31.41" height="3.01" transform="translate(-42.46 181.59) rotate(-7.71)"/>
      <path class="cls-1" d="m1375.04,0c-5.91,0-10.71,4.79-10.71,10.71s4.79,10.71,10.71,10.71,10.71-4.79,10.71-10.71-4.79-10.71-10.71-10.71Zm0,18.11c-4.09,0-7.4-3.31-7.4-7.4s3.31-7.4,7.4-7.4,7.4,3.31,7.4,7.4-3.31,7.4-7.4,7.4Z"/>
      <path class="cls-1" d="m1467,158.23c-5.91,0-10.71,4.79-10.71,10.71s4.79,10.71,10.71,10.71,10.71-4.79,10.71-10.71-4.79-10.71-10.71-10.71Zm0,18.11c-4.09,0-7.4-3.31-7.4-7.4s3.31-7.4,7.4-7.4,7.4,3.31,7.4,7.4-3.31,7.4-7.4,7.4Z"/>
      <rect class="cls-1" x="1316.1" y="172.86" width="96.48" height="3.01" transform="translate(-11.06 184.7) rotate(-7.71)"/>
      <rect class="cls-1" x="1211.93" y="159.3" width="3.01" height="46.05"/>
      <path class="cls-1" d="m1496.99,282.76c-5.91,0-10.71,4.79-10.71,10.71s4.79,10.71,10.71,10.71,10.71-4.79,10.71-10.71-4.79-10.71-10.71-10.71Zm0,18.11c-4.09,0-7.4-3.31-7.4-7.4s3.31-7.4,7.4-7.4,7.4,3.31,7.4,7.4-3.31,7.4-7.4,7.4Z"/>
      <path class="cls-1" d="m1364.34,395.06c-5.91,0-10.71,4.79-10.71,10.71s4.79,10.71,10.71,10.71,10.71-4.79,10.71-10.71-4.79-10.71-10.71-10.71Zm0,18.11c-4.09,0-7.4-3.31-7.4-7.4s3.31-7.4,7.4-7.4,7.4,3.31,7.4,7.4-3.31,7.4-7.4,7.4Z"/>
      <rect class="cls-1" x="1335.98" y="30.42" width="20.99" height="20.99" transform="translate(365.44 964.08) rotate(-45)"/>
      <path class="cls-1" d="m1498.84,147.01h22.08v-18.23h0v-30.21c0-16.31-13.27-29.58-29.58-29.58s-29.58,13.27-29.58,29.58v30.21h37.09v18.23Zm-15.01-40.3v-8.14c0-4.14,3.37-7.51,7.51-7.51s7.51,3.37,7.51,7.51v8.14h-15.01Z"/>
      <polygon class="cls-1" points="1417.93 41.61 1432.08 55.76 1446.93 40.92 1432.08 26.07 1417.93 40.22 1403.78 26.07 1388.94 40.92 1403.78 55.76 1417.93 41.61"/>
      <path class="cls-1" d="m1304.63,117.42l11.31,11.31.05.05h50.63c.21-.22.46-.47.73-.74l.12-.12.68-.68.37-.37.55-.55.46-.45.5-.5c3.56-3.55,8.03-7.94,8.03-7.94l11.31,11.31.05.05h56.35v-30.21c0-16.31-13.27-29.58-29.58-29.58s-29.58,13.27-29.58,29.58v7.53h-16.21v-7.53c0-16.31-13.27-29.58-29.58-29.58s-29.58,13.27-29.58,29.58v7.53h-136.02v22.63h118.04c2.92-2.99,11.38-11.31,11.38-11.31Zm104.05-18.85c0-4.14,3.37-7.51,7.51-7.51s7.5,3.37,7.5,7.51v8.14h-15.01v-8.14Zm-75.38,0c0-4.14,3.37-7.51,7.5-7.51s7.51,3.37,7.51,7.51v7.53h-15.01v-7.53Z"/>
      <path class="cls-1" d="m1422.08,374.5l.15.15,17.59-17.59,17.59,17.59.12-.12v.13s51.72,0,51.72,0c2.92-2.99,11.38-11.31,11.38-11.31l-.06-11.31v-27.09h-22.63v27.09h-31.15l-26.94-26.94-.03.03-.03-.03-26.94,26.94h-237.64v22.63h246.87v-.16Z"/>
      <rect class="cls-1" x="1192.02" y="437.87" width="20.99" height="20.99" transform="translate(35.16 981.62) rotate(-45)"/>
      <path class="cls-1" d="m1255.57,448.56h-22.63v27.09h-59.77l-.36,22.63h71.44c2.92-2.99,11.38-11.31,11.38-11.31l-.06-11.31v-27.09Z"/>
      <path class="cls-1" d="m1244.72,260.85l.15.15,17.59-17.59,17.37,17.37v.23s14.53,0,14.53,0c2.92-2.99,11.38-11.31,11.38-11.31l11.31,11.31h88.9c2.92-2.99,11.38-11.31,11.38-11.31l11.31,11.31h15.47c2.92-2.99,11.38-11.31,11.38-11.31l7.09,7.09h0s4.27,4.28,4.27,4.28h43.85c.36-.54,11.25-11.26,11.58-11.58v-10.5h-37.63v-8.14c0-4.14,3.37-7.5,7.5-7.5s7.51,3.37,7.51,7.5h22.08c0-16.31-13.27-29.58-29.58-29.58s-29.58,13.27-29.58,29.58v7.53h-15.77v-27.09h-22.63v27.09h-13.85v-27.09h-22.63v27.09h-15.14v-27.09h-22.63v27.09h-14.98v-27.09h-22.63v27.09h-22.91l-26.94-26.94-.03.03-.03-.03-26.94,26.94h-60.28v22.63h69.5v-.16Z"/>
      <rect class="cls-1" x="1498.03" y="386.13" width="20.99" height="20.99" transform="translate(161.39 1182.87) rotate(-45)"/>
      <polygon class="cls-1" points="1438 282.07 1423.85 267.92 1409.01 282.76 1423.85 297.61 1438 283.46 1452.15 297.61 1467 282.76 1452.15 267.92 1438 282.07"/>
      <rect class="cls-1" x="1330.04" y="314.45" width="20.99" height="20.99" transform="translate(162.85 1043.05) rotate(-45)"/>
      <path class="cls-1" d="m1520.08,475.65v-27.09h-22.63v27.09h-15.14v-28h-22.63v28h-14.98v-28h-22.63v28h-15.4v-51.88h-22.63v51.88h-15.93v-7.59c0-16.31-13.27-29.58-29.58-29.58s-29.58,13.27-29.58,29.58v7.59h-13.74v-51.88h-22.63v53.56h.16l-.34,20.95h18.18l11.86-11.82,11.82,11.82h49.4l11.86-11.82,11.82,11.82h16.51l11.95-11.82,11.82,11.82h81.15c2.92-2.99,11.38-11.31,11.38-11.31l-.06-11.31Zm-174.05,0h-15.01v-7.59c0-4.14,3.37-7.51,7.5-7.51s7.51,3.37,7.51,7.51v7.59Z"/>
    </g>
  </g>
</svg>