<svg width="392" height="173" viewBox="0 0 392 173" fill="none" xmlns="http://www.w3.org/2000/svg">
<mask id="mask0_1_1545" style="mask-type:alpha" maskUnits="userSpaceOnUse" x="0" y="0" width="392" height="173">
<rect width="392" height="173" fill="#D9D9D9"/>
</mask>
<g mask="url(#mask0_1_1545)">
<mask id="mask1_1_1545" style="mask-type:luminance" maskUnits="userSpaceOnUse" x="-19" y="13" width="407" height="262">
<path d="M387.056 13.5256H-18.3438V274.126H387.056V13.5256Z" fill="white"/>
</mask>
<g mask="url(#mask1_1_1545)">
<path d="M57.0565 77.7256H7.85645V65.8256H52.1565L66.3564 51.6256L80.5565 65.8256H92.6565V51.5256H104.557V65.8256H112.457V51.5256H124.356V65.8256H132.356V51.5256H144.256V65.8256H151.557V51.5256H163.457V65.8256H171.756V61.8256C171.756 53.2256 178.756 46.2256 187.356 46.2256C195.956 46.2256 202.957 53.2256 202.957 61.8256H191.356C191.356 59.6256 189.556 57.8256 187.356 57.8256C185.156 57.8256 183.356 59.6256 183.356 61.8256V66.1256H203.156V71.6256C202.856 71.9256 197.257 77.4256 197.057 77.7256H173.957L171.656 75.4256L167.957 71.7256C167.957 71.7256 163.457 76.1256 161.957 77.7256H153.756L147.756 71.7256C147.756 71.7256 143.256 76.1256 141.756 77.7256H94.8564L88.8564 71.7256C88.8564 71.7256 84.3564 76.1256 82.8564 77.7256H75.1565V77.6256L65.9565 68.4256L57.0565 77.7256Z" fill="#A9823A"/>
</g>
<mask id="mask2_1_1545" style="mask-type:luminance" maskUnits="userSpaceOnUse" x="-19" y="13" width="407" height="262">
<path d="M387.056 13.5256H-18.3438V274.126H387.056V13.5256Z" fill="white"/>
</mask>
<g mask="url(#mask2_1_1545)">
<path d="M166.456 81.3256L174.256 89.2256L166.456 97.0256L158.956 89.5256L151.556 97.0256L143.656 89.2256L151.556 81.3256L158.956 88.8256L166.456 81.3256Z" fill="#A9823A"/>
</g>
<mask id="mask3_1_1545" style="mask-type:luminance" maskUnits="userSpaceOnUse" x="-19" y="13" width="407" height="262">
<path d="M387.056 13.5256H-18.3438V274.126H387.056V13.5256Z" fill="white"/>
</mask>
<g mask="url(#mask3_1_1545)">
<path d="M370.156 78.6256V62.7256C370.156 54.1256 363.156 47.1256 354.556 47.1256C345.956 47.1256 338.956 54.1256 338.956 62.7256V78.6256H358.556V88.2256H370.156V78.6256ZM358.556 67.0256H350.656V62.7256C350.656 60.5256 352.456 58.7256 354.656 58.7256C356.856 58.7256 358.656 60.5256 358.656 62.7256V67.0256H358.556Z" fill="#A9823A"/>
</g>
<mask id="mask4_1_1545" style="mask-type:luminance" maskUnits="userSpaceOnUse" x="55" y="-58" width="472" height="471">
<path d="M341.869 -57.9716L55.2109 228.687L239.481 412.957L526.14 126.299L341.869 -57.9716Z" fill="white"/>
</mask>
<g mask="url(#mask4_1_1545)">
<path d="M278.159 24.4056L270.311 32.2544L278.159 40.1032L286.008 32.2544L278.159 24.4056Z" fill="#A9823A"/>
</g>
<mask id="mask5_1_1545" style="mask-type:luminance" maskUnits="userSpaceOnUse" x="-19" y="13" width="407" height="262">
<path d="M387.056 13.5256H-18.3438V274.126H387.056V13.5256Z" fill="white"/>
</mask>
<g mask="url(#mask5_1_1545)">
<path d="M308.356 40.1256L300.556 32.3256L308.356 24.4256L315.856 31.9256L323.356 24.4256L331.156 32.3256L323.356 40.1256L315.856 32.6256L308.356 40.1256Z" fill="#A9823A"/>
</g>
<mask id="mask6_1_1545" style="mask-type:luminance" maskUnits="userSpaceOnUse" x="-19" y="13" width="407" height="262">
<path d="M387.056 13.5256H-18.3438V274.126H387.056V13.5256Z" fill="white"/>
</mask>
<g mask="url(#mask6_1_1545)">
<path d="M314.956 47.1256C306.356 47.1256 299.356 54.1256 299.356 62.7256V66.7256H290.856V62.7256C290.856 54.1256 283.856 47.1256 275.256 47.1256C266.656 47.1256 259.656 54.1256 259.656 62.7256V66.7256H221.256V78.6256H250.156C251.656 77.0256 256.156 72.6256 256.156 72.6256L259.656 76.1256L262.156 78.6256H288.856C288.956 78.5256 289.056 78.3256 289.256 78.2256C289.356 78.1256 289.556 77.9256 289.656 77.8256C289.756 77.7256 289.756 77.7256 289.856 77.6256C289.956 77.5256 290.056 77.4256 290.156 77.3256C290.256 77.2256 290.356 77.1256 290.456 77.0256C290.556 76.9256 290.556 76.9256 290.656 76.8256C292.556 74.9256 294.956 72.6256 294.956 72.6256L299.456 77.1256L300.956 78.6256H330.656V62.7256C330.556 54.1256 323.556 47.1256 314.956 47.1256ZM279.156 66.7256H271.256V62.7256C271.256 60.5256 273.056 58.7256 275.256 58.7256C277.456 58.7256 279.256 60.5256 279.256 62.7256V66.7256H279.156ZM318.856 67.0256H310.956V62.7256C310.956 60.5256 312.756 58.7256 314.956 58.7256C317.156 58.7256 318.956 60.5256 318.956 62.7256V67.0256H318.856Z" fill="#A9823A"/>
</g>
<mask id="mask7_1_1545" style="mask-type:luminance" maskUnits="userSpaceOnUse" x="-19" y="13" width="407" height="262">
<path d="M387.056 13.5256H-18.3438V274.126H387.056V13.5256Z" fill="white"/>
</mask>
<g mask="url(#mask7_1_1545)">
<path d="M203.457 136.226V121.926H191.557V136.226H183.557V121.426H171.656V136.226H163.756V121.426H151.856V136.226H143.756V108.826H131.656V136.226H123.256V132.226C123.256 123.626 116.256 116.626 107.656 116.626C99.0565 116.626 92.0565 123.626 92.0565 132.226V136.226H84.8564V108.826H72.9565V137.026H73.0565L72.8564 148.026H82.5565C83.4565 147.026 88.5565 142.026 88.5565 142.026L94.5565 148.026H94.7565H121.457H121.557C122.457 147.026 127.557 142.026 127.557 142.026L133.557 148.026H142.356C143.256 147.026 148.356 142.026 148.356 142.026L154.356 148.026H197.756C199.256 146.426 203.756 142.026 203.756 142.026L203.457 136.226ZM111.656 136.226H103.756V132.226C103.756 130.026 105.556 128.226 107.756 128.226C109.956 128.226 111.756 130.026 111.756 132.226V136.226H111.656Z" fill="#A9823A"/>
</g>
<mask id="mask8_1_1545" style="mask-type:luminance" maskUnits="userSpaceOnUse" x="-19" y="13" width="407" height="262">
<path d="M387.056 13.5256H-18.3438V274.126H387.056V13.5256Z" fill="white"/>
</mask>
<g mask="url(#mask8_1_1545)">
<path d="M63.9564 136.226V142.226C63.9564 142.226 59.4564 146.626 57.9564 148.226H7.75635L7.95642 136.326H52.0564V122.026H63.9564V136.226Z" fill="#A9823A"/>
</g>
<mask id="mask9_1_1545" style="mask-type:luminance" maskUnits="userSpaceOnUse" x="-79" y="-203" width="471" height="471">
<path d="M207.658 -203L-79 83.6584L105.27 267.929L391.929 -18.7297L207.658 -203Z" fill="white"/>
</mask>
<g mask="url(#mask9_1_1545)">
<path d="M35.9743 113.922L28.1255 121.771L35.9743 129.62L43.8231 121.771L35.9743 113.922Z" fill="#A9823A"/>
</g>
<mask id="mask10_1_1545" style="mask-type:luminance" maskUnits="userSpaceOnUse" x="-11" y="38" width="472" height="472">
<path d="M276.507 38.8258L-10.1514 325.484L174.119 509.754L460.777 223.096L276.507 38.8258Z" fill="white"/>
</mask>
<g mask="url(#mask10_1_1545)">
<path d="M362.278 151.75L354.429 159.599L362.278 167.447L370.127 159.599L362.278 151.75Z" fill="#A9823A"/>
</g>
<mask id="mask11_1_1545" style="mask-type:luminance" maskUnits="userSpaceOnUse" x="-10" y="-35" width="472" height="472">
<path d="M277.297 -34.8777L-9.36133 251.781L174.909 436.051L461.567 149.393L277.297 -34.8777Z" fill="white"/>
</mask>
<g mask="url(#mask11_1_1545)">
<path d="M273.691 113.967L265.842 121.816L273.691 129.664L281.539 121.816L273.691 113.967Z" fill="#A9823A"/>
</g>
<mask id="mask12_1_1545" style="mask-type:luminance" maskUnits="userSpaceOnUse" x="-19" y="13" width="407" height="262">
<path d="M387.056 13.5256H-18.3438V274.126H387.056V13.5256Z" fill="white"/>
</mask>
<g mask="url(#mask12_1_1545)">
<path d="M335.456 148.026L326.156 138.726L316.856 148.026L316.756 147.926V148.026H221.156V136.126H311.856L326.056 121.926L340.256 136.126H356.656V121.826H368.556V136.126V142.126C368.556 142.126 364.056 146.526 362.556 148.126H335.456V148.026Z" fill="#A9823A"/>
</g>
<mask id="mask13_1_1545" style="mask-type:luminance" maskUnits="userSpaceOnUse" x="-19" y="13" width="407" height="262">
<path d="M387.056 13.5256H-18.3438V274.126H387.056V13.5256Z" fill="white"/>
</mask>
<g mask="url(#mask13_1_1545)">
<path d="M32.4562 22.4256H31.0562V44.2256H32.4562V22.4256Z" fill="#A9823A"/>
</g>
<mask id="mask14_1_1545" style="mask-type:luminance" maskUnits="userSpaceOnUse" x="-20" y="-23" width="438" height="314">
<path d="M382.422 -22.4771L-19.3291 31.887L15.6174 290.142L417.369 235.777L382.422 -22.4771Z" fill="white"/>
</mask>
<g mask="url(#mask14_1_1545)">
<path d="M140.102 26.5604L94.813 32.6888L95.0007 34.0762L140.289 27.9478L140.102 26.5604Z" fill="#A9823A"/>
</g>
<mask id="mask15_1_1545" style="mask-type:luminance" maskUnits="userSpaceOnUse" x="-19" y="13" width="407" height="262">
<path d="M387.056 13.5256H-18.3438V274.126H387.056V13.5256Z" fill="white"/>
</mask>
<g mask="url(#mask15_1_1545)">
<path d="M260.056 22.4256H246.256V20.8256H253.356V19.7256C253.356 17.8256 254.856 16.3256 256.756 16.3256C258.656 16.3256 260.156 17.8256 260.156 19.7256V20.8256V21.7256V22.4256H260.056Z" fill="#A9823A"/>
</g>
<mask id="mask16_1_1545" style="mask-type:luminance" maskUnits="userSpaceOnUse" x="-18" y="8" width="437" height="314">
<path d="M383.769 8.5134L-17.9824 62.9181L16.9901 321.173L418.742 266.768L383.769 8.5134Z" fill="white"/>
</mask>
<g mask="url(#mask16_1_1545)">
<path d="M355.663 34.2186L340.897 36.2182L341.085 37.6056L355.851 35.606L355.663 34.2186Z" fill="#A9823A"/>
</g>
<mask id="mask17_1_1545" style="mask-type:luminance" maskUnits="userSpaceOnUse" x="-36" y="-1" width="438" height="314">
<path d="M366.283 -0.174492L-35.4688 54.2302L-0.496227 312.485L401.255 258.08L366.283 -0.174492Z" fill="white"/>
</mask>
<g mask="url(#mask17_1_1545)">
<path d="M282.563 159.612L267.797 161.612L267.985 162.999L282.751 161L282.563 159.612Z" fill="#A9823A"/>
</g>
<mask id="mask18_1_1545" style="mask-type:luminance" maskUnits="userSpaceOnUse" x="-30" y="-25" width="438" height="314">
<path d="M372.568 -24.3324L-29.1836 30.0723L5.78893 288.327L407.54 233.922L372.568 -24.3324Z" fill="white"/>
</mask>
<g mask="url(#mask18_1_1545)">
<path d="M106.455 100.915L91.6895 102.915L91.8773 104.302L106.643 102.303L106.455 100.915Z" fill="#A9823A"/>
</g>
<mask id="mask19_1_1545" style="mask-type:luminance" maskUnits="userSpaceOnUse" x="-29" y="-13" width="438" height="314">
<path d="M373.375 -12.3508L-28.376 42.0539L6.59655 300.308L408.348 245.904L373.375 -12.3508Z" fill="white"/>
</mask>
<g mask="url(#mask19_1_1545)">
<path d="M195.759 100.913L180.994 102.912L181.182 104.3L195.947 102.3L195.759 100.913Z" fill="#A9823A"/>
</g>
<mask id="mask20_1_1545" style="mask-type:luminance" maskUnits="userSpaceOnUse" x="-19" y="13" width="407" height="262">
<path d="M387.056 13.5256H-18.3438V274.126H387.056V13.5256Z" fill="white"/>
</mask>
<g mask="url(#mask20_1_1545)">
<path d="M177.756 24.1256C174.956 24.1256 172.656 26.4256 172.656 29.2256C172.656 32.0256 174.956 34.3256 177.756 34.3256C180.556 34.3256 182.856 32.0256 182.856 29.2256C182.856 26.4256 180.556 24.1256 177.756 24.1256ZM177.756 32.6256C175.856 32.6256 174.256 31.0256 174.256 29.1256C174.256 27.2256 175.856 25.6256 177.756 25.6256C179.656 25.6256 181.256 27.2256 181.256 29.1256C181.256 31.1256 179.656 32.6256 177.756 32.6256Z" fill="#A9823A"/>
</g>
<mask id="mask21_1_1545" style="mask-type:luminance" maskUnits="userSpaceOnUse" x="-19" y="13" width="407" height="262">
<path d="M387.056 13.5256H-18.3438V274.126H387.056V13.5256Z" fill="white"/>
</mask>
<g mask="url(#mask21_1_1545)">
<path d="M119.856 97.5256C117.056 97.5256 114.756 99.8256 114.756 102.626C114.756 105.426 117.056 107.726 119.856 107.726C122.656 107.726 124.956 105.426 124.956 102.626C124.956 99.8256 122.656 97.5256 119.856 97.5256ZM119.856 106.126C117.956 106.126 116.356 104.526 116.356 102.626C116.356 100.726 117.956 99.1256 119.856 99.1256C121.756 99.1256 123.356 100.726 123.356 102.626C123.356 104.526 121.756 106.126 119.856 106.126Z" fill="#A9823A"/>
</g>
<mask id="mask22_1_1545" style="mask-type:luminance" maskUnits="userSpaceOnUse" x="-19" y="13" width="407" height="262">
<path d="M387.056 13.5256H-18.3438V274.126H387.056V13.5256Z" fill="white"/>
</mask>
<g mask="url(#mask22_1_1545)">
<path d="M346.056 97.5256C343.256 97.5256 340.956 99.8256 340.956 102.626C340.956 105.426 343.256 107.726 346.056 107.726C348.856 107.726 351.156 105.426 351.156 102.626C351.156 99.8256 348.856 97.5256 346.056 97.5256ZM346.056 106.126C344.156 106.126 342.556 104.526 342.556 102.626C342.556 100.726 344.156 99.1256 346.056 99.1256C347.956 99.1256 349.556 100.726 349.556 102.626C349.556 104.526 348.056 106.126 346.056 106.126Z" fill="#A9823A"/>
</g>
<mask id="mask23_1_1545" style="mask-type:luminance" maskUnits="userSpaceOnUse" x="-19" y="13" width="407" height="262">
<path d="M387.056 13.5256H-18.3438V274.126H387.056V13.5256Z" fill="white"/>
</mask>
<g mask="url(#mask23_1_1545)">
<path d="M293.356 13.5256C290.556 13.5256 288.256 15.8256 288.256 18.6256C288.256 21.4256 290.556 23.7256 293.356 23.7256C296.156 23.7256 298.456 21.4256 298.456 18.6256C298.456 15.8256 296.156 13.5256 293.356 13.5256ZM293.356 22.1256C291.456 22.1256 289.856 20.5256 289.856 18.6256C289.856 16.7256 291.456 15.1256 293.356 15.1256C295.256 15.1256 296.856 16.7256 296.856 18.6256C296.856 20.5256 295.356 22.1256 293.356 22.1256Z" fill="#A9823A"/>
</g>
</g>
</svg>
