<svg width="20" height="20" viewBox="0 0 20 20" fill="none" xmlns="http://www.w3.org/2000/svg">
<path d="M1.41761 7.55088L1.41768 7.55084L8.90228 3.14909C8.9023 3.14907 8.90232 3.14906 8.90234 3.14905C9.57894 2.7507 10.4208 2.74994 11.0977 3.14905C11.0977 3.14908 11.0978 3.14911 11.0978 3.14914L18.5817 7.55019C18.5817 7.5502 18.5817 7.5502 18.5817 7.55021C18.9378 7.75948 19.15 8.13432 19.15 8.5489C19.15 8.96358 18.9377 9.33774 18.5817 9.54695L18.5818 9.54689L18.5057 9.41767L18.5817 9.54699L1.41761 7.55088ZM1.41761 7.55088C1.06231 7.7601 0.85 8.13424 0.85 8.5489C0.85 8.9636 1.06233 9.33762 1.41742 9.54743L1.41767 9.54758M1.41761 7.55088L1.41767 9.54758M1.41767 9.54758L3.61289 10.839V13.8562C3.61289 14.6294 4.02363 15.349 4.68576 15.7357L4.68581 15.7358M1.41767 9.54758L4.68581 15.7358M4.68581 15.7358L7.80945 17.5587L7.80949 17.5587M4.68581 15.7358L7.80949 17.5587M7.80949 17.5587C8.48481 17.9525 9.24231 18.15 9.99969 18.15C10.757 18.15 11.5139 17.9532 12.1899 17.5587L12.1899 17.5587M7.80949 17.5587L12.1899 17.5587M12.1899 17.5587L15.3129 15.7358L12.1899 17.5587ZM18.5098 9.58937V9.50367H18.3598L18.4359 9.63289L18.5098 9.58937ZM5.02161 13.8556V11.6667L8.90234 13.9494L8.90243 13.9494C9.24103 14.1483 9.62068 14.248 10.0003 14.248C10.3798 14.248 10.7595 14.149 11.0984 13.9493L14.979 11.6667V13.7056H14.9784V13.8556C14.9784 14.1234 14.8367 14.3715 14.6092 14.5037L14.6089 14.5038L11.4859 16.3267C10.5698 16.861 9.43019 16.861 8.51471 16.3267L5.39107 14.5038L5.39096 14.5038C5.16378 14.3715 5.02161 14.1233 5.02161 13.8556ZM10.389 12.7211L10.389 12.7211C10.1491 12.8623 9.85091 12.8623 9.611 12.7211L9.61095 12.7211L2.51785 8.54889L9.61034 4.37674L9.61039 4.37671C9.8503 4.23547 10.1485 4.23547 10.3884 4.37671L10.3884 4.37675L17.4815 8.5483L10.389 12.7211ZM18.9413 15.5046C18.9413 15.1399 18.7725 14.8148 18.5098 14.6043L15.313 15.7358C15.9758 15.3496 16.3865 14.6293 16.3865 13.8562V10.8384L17.1017 10.4178V14.6042C16.8388 14.8143 16.6701 15.1395 16.6701 15.5046C16.6701 16.1367 17.1769 16.6524 17.8057 16.6524C18.4345 16.6524 18.9413 16.1367 18.9413 15.5046Z" fill="black" stroke="black" stroke-width="0.3"/>
</svg>
